<?xml version="1.0" encoding="UTF-8" standalone="no"?>
<!-- Created with Inkscape (http://www.inkscape.org/) -->

<svg
   xmlns:dc="http://purl.org/dc/elements/1.1/"
   xmlns:cc="http://creativecommons.org/ns#"
   xmlns:rdf="http://www.w3.org/1999/02/22-rdf-syntax-ns#"
   xmlns:svg="http://www.w3.org/2000/svg"
   xmlns="http://www.w3.org/2000/svg"
   xmlns:sodipodi="http://sodipodi.sourceforge.net/DTD/sodipodi-0.dtd"
   xmlns:inkscape="http://www.inkscape.org/namespaces/inkscape"
   width="136mm"
   height="188mm"
   viewBox="0 0 136 188"
   version="1.1"
   id="svg8"
   inkscape:version="0.92.4 (5da689c313, 2019-01-14)"
   sodipodi:docname="Card.svg">
  <defs
     id="defs2" />
  <sodipodi:namedview
     id="base"
     pagecolor="#ffffff"
     bordercolor="#666666"
     borderopacity="1.0"
     inkscape:pageopacity="0.0"
     inkscape:pageshadow="2"
     inkscape:zoom="0.98994949"
     inkscape:cx="428.88284"
     inkscape:cy="473.26717"
     inkscape:document-units="mm"
     inkscape:current-layer="layer2"
     showgrid="false"
     inkscape:window-width="1920"
     inkscape:window-height="1017"
     inkscape:window-x="-8"
     inkscape:window-y="-8"
     inkscape:window-maximized="1" />
  <metadata
     id="metadata5">
    <rdf:RDF>
      <cc:Work
         rdf:about="">
        <dc:format>image/svg+xml</dc:format>
        <dc:type
           rdf:resource="http://purl.org/dc/dcmitype/StillImage" />
        <dc:title />
      </cc:Work>
    </rdf:RDF>
  </metadata>
  <g
     inkscape:groupmode="layer"
     id="layer2"
     inkscape:label="Border"
     style="display:inline"
     transform="translate(0,-109)">
    <path
       id="path957"
       style="fill:#ffd5d5;fill-opacity:1;stroke:#000000;stroke-width:2.01166654;stroke-linecap:butt;stroke-linejoin:miter;stroke-miterlimit:4;stroke-dasharray:none;stroke-opacity:1"
       d="M 1.018697,141.88065 134.6792,141.64346 M 8.7697538,110.00583 H 127.23024 c 4.30121,0 7.76392,3.4914 7.76392,7.82826 V 288.1659 c 0,4.33686 -3.46271,7.82826 -7.76392,7.82826 H 8.7697538 c -4.3012119,0 -7.7639204,-3.4914 -7.7639204,-7.82826 V 117.83409 c 0,-4.33686 3.4627085,-7.82826 7.7639204,-7.82826 z"
       inkscape:connector-curvature="0"
       sodipodi:nodetypes="ccsssssssss" />
    <path
       style="opacity:0.9;fill:#d20000;fill-opacity:1;stroke:none;stroke-width:1.03557444;stroke-linecap:butt;stroke-miterlimit:4;stroke-dasharray:none;stroke-opacity:1"
       d="m 1.7786627,128.60526 0.037102,-12.72253 0.5704779,-1.19032 c 0.9658353,-2.01523 2.7904419,-3.48017 4.8096019,-3.86152 0.5665264,-0.107 18.3265935,-0.15038 60.9632535,-0.14892 53.184432,0.002 60.264002,0.0265 61.027032,0.21244 2.30846,0.56265 4.1672,2.36579 4.94867,4.8006 0.22931,0.71449 0.24867,1.59921 0.28682,13.10668 l 0.041,12.34046 -49.336724,0.0928 c -27.135195,0.051 -56.997417,0.0928 -66.360493,0.0928 H 1.7415671 Z"
       id="path972"
       inkscape:connector-curvature="0" />
  </g>
  <g
     inkscape:groupmode="layer"
     id="layer6"
     inkscape:label="Icon"
     style="display:inline"
     transform="translate(0,-109)"
     sodipodi:insensitive="true">
    <path
       style="fill:none;stroke:#000000;stroke-width:0.75437498;stroke-linecap:round;stroke-linejoin:miter;stroke-miterlimit:4;stroke-dasharray:none;stroke-opacity:1"
       d="m 48.821605,193.43135 4.059463,-4.40322"
       id="path1072"
       inkscape:connector-curvature="0"
       sodipodi:nodetypes="cc" />
    <path
       style="fill:none;stroke:#000000;stroke-width:1.00583327;stroke-linecap:round;stroke-linejoin:miter;stroke-miterlimit:4;stroke-dasharray:none;stroke-opacity:1"
       d="m 62.743116,185.13069 1.974447,2.19327"
       id="path1074"
       inkscape:connector-curvature="0" />
    <path
       style="fill:none;stroke:#000000;stroke-width:1.00583327;stroke-linecap:round;stroke-linejoin:miter;stroke-miterlimit:4;stroke-dasharray:none;stroke-opacity:1"
       d="m 64.901621,183.15675 1.974444,2.19327"
       id="path1074-5"
       inkscape:connector-curvature="0" />
    <path
       style="fill:none;stroke:#000000;stroke-width:1.00583327;stroke-linecap:round;stroke-linejoin:miter;stroke-miterlimit:4;stroke-dasharray:none;stroke-opacity:1"
       d="m 67.043397,181.23341 1.974441,2.19327"
       id="path1074-2"
       inkscape:connector-curvature="0" />
    <path
       style="fill:none;stroke:#000000;stroke-width:1.00583327;stroke-linecap:round;stroke-linejoin:miter;stroke-miterlimit:4;stroke-dasharray:none;stroke-opacity:1"
       d="m 69.218627,179.10766 1.974453,2.19327"
       id="path1074-9"
       inkscape:connector-curvature="0" />
    <path
       style="fill:none;stroke:#000000;stroke-width:1.00583327;stroke-linecap:round;stroke-linejoin:miter;stroke-miterlimit:4;stroke-dasharray:none;stroke-opacity:1"
       d="m 71.360401,176.98187 1.974453,2.19327"
       id="path1074-8"
       inkscape:connector-curvature="0" />
    <path
       id="path1109"
       style="fill:none;stroke:#000000;stroke-width:0.90524995;stroke-linecap:butt;stroke-linejoin:miter;stroke-miterlimit:4;stroke-dasharray:none;stroke-opacity:1;paint-order:normal"
       d="m 65.11914,166.30235 10.54153,10.29149 m -2.807639,-17.72421 -20.918499,20.99645 c -0.198007,2.61431 0.141902,7.11344 0.946538,9.16205 2.374781,0.96211 6.402219,1.07277 9.560036,0.95441 l 20.72919,-20.61467 z"
       inkscape:connector-curvature="0" />
    <path
       style="fill:#beffff;fill-opacity:1;stroke:#000000;stroke-width:1.00583327;stroke-linecap:round;stroke-linejoin:miter;stroke-miterlimit:4;stroke-dasharray:none;stroke-opacity:1"
       d="m 68.440313,169.47176 18.196934,-18.42107 3.982362,3.91414 -18.405847,18.22097 z"
       id="path1111"
       inkscape:connector-curvature="0"
       sodipodi:nodetypes="ccccc" />
    <path
       style="fill:#ffffff;fill-opacity:1;stroke:#000000;stroke-width:1.20700002;stroke-linecap:round;stroke-linejoin:round;stroke-miterlimit:4;stroke-dasharray:none;stroke-opacity:1"
       d="m 71.209808,157.15812 13.452996,13.36205 3.212653,-3.23929 -13.51993,-13.2271 z"
       id="path1115"
       inkscape:connector-curvature="0" />
    <path
       style="fill:none;stroke:#000000;stroke-width:1.50874996;stroke-linecap:round;stroke-linejoin:miter;stroke-miterlimit:4;stroke-dasharray:none;stroke-opacity:1"
       d="m 83.859639,148.25009 9.370256,9.44792"
       id="path1117"
       inkscape:connector-curvature="0" />
    <path
       style="opacity:0.9;fill:#ff0000;fill-opacity:0.66834172;fill-rule:nonzero;stroke:#000000;stroke-width:0.20116666;stroke-linecap:round;stroke-linejoin:round;stroke-miterlimit:4;stroke-dasharray:none;stroke-opacity:1"
       d="m 58.784482,189.5111 c -2.148183,-0.10546 -3.858349,-0.34388 -5.067978,-0.70646 l -0.449782,-0.13483 -0.128391,-0.41952 c -0.47348,-1.54715 -0.76826,-4.25363 -0.732936,-6.72933 l 0.0207,-1.45091 6.433273,-6.46305 6.433271,-6.46307 2.60233,2.55145 c 1.431276,1.40332 3.008928,2.94461 3.505887,3.42517 0.496949,0.48052 1.527508,1.48302 2.290116,2.22766 l 1.386559,1.354 -0.852148,0.85732 -0.852147,0.85731 -0.887679,-0.97864 c -0.919192,-1.01339 -1.016075,-1.07865 -1.387862,-0.93477 -0.144364,0.0559 -0.287175,0.39415 -0.249742,0.59157 0.01583,0.0834 0.42079,0.58627 0.899949,1.11745 l 0.87119,0.96583 -0.678135,0.68208 -0.678143,0.68205 -0.383959,-0.4049 c -0.211176,-0.22269 -0.614127,-0.66151 -0.895432,-0.97515 -0.461849,-0.51492 -0.534912,-0.57025 -0.753251,-0.57025 -0.36161,0 -0.542195,0.22802 -0.514238,0.6493 0.004,0.0639 0.391721,0.54436 0.861063,1.06767 0.469353,0.52335 0.85303,0.97215 0.85262,0.99736 -5.31e-4,0.0251 -0.305045,0.34356 -0.676973,0.70746 l -0.676222,0.66162 -0.719223,-0.7966 c -0.982646,-1.08835 -1.071794,-1.16776 -1.31092,-1.16776 -0.265993,0 -0.531347,0.26485 -0.531347,0.53034 0,0.16088 0.172591,0.39113 0.900243,1.20095 l 0.900244,1.00186 -0.61447,0.62423 c -0.337956,0.34333 -0.631769,0.62424 -0.652921,0.62424 -0.02115,0 -0.451432,-0.45507 -0.956178,-1.01128 -0.517178,-0.56989 -0.987125,-1.02885 -1.07674,-1.05149 -0.364332,-0.0922 -0.715768,0.28544 -0.616464,0.66247 0.022,0.0835 0.446923,0.60494 0.944281,1.15875 0.497356,0.55381 0.904285,1.03001 0.904285,1.05822 0,0.0482 -1.244503,1.24163 -1.294734,1.24163 -0.0128,0 -0.376958,-0.39479 -0.80925,-0.87731 -1.068172,-1.19229 -1.131668,-1.24846 -1.410917,-1.24846 -0.305968,0 -0.500921,0.19637 -0.500921,0.50457 0,0.20769 0.112579,0.35944 0.98082,1.32212 l 0.980818,1.08753 -0.974686,0.98275 -0.974684,0.98278 -1.495335,0.0145 c -0.822432,0.008 -1.706163,0.004 -1.963845,-0.008 z"
       id="path1128"
       inkscape:connector-curvature="0" />
  </g>
</svg>
