<?xml version="1.0" encoding="UTF-8" standalone="no"?>
<!-- Created with Inkscape (http://www.inkscape.org/) -->

<svg
   xmlns:dc="http://purl.org/dc/elements/1.1/"
   xmlns:cc="http://creativecommons.org/ns#"
   xmlns:rdf="http://www.w3.org/1999/02/22-rdf-syntax-ns#"
   xmlns:svg="http://www.w3.org/2000/svg"
   xmlns="http://www.w3.org/2000/svg"
   xmlns:sodipodi="http://sodipodi.sourceforge.net/DTD/sodipodi-0.dtd"
   xmlns:inkscape="http://www.inkscape.org/namespaces/inkscape"
   width="210mm"
   height="297mm"
   viewBox="0 0 210 297"
   version="1.1"
   id="svg8"
   inkscape:version="0.92.4 (5da689c313, 2019-01-14)"
   sodipodi:docname="City.svg">
  <defs
     id="defs2" />
  <sodipodi:namedview
     id="base"
     pagecolor="#ffffff"
     bordercolor="#666666"
     borderopacity="1.0"
     inkscape:pageopacity="0.0"
     inkscape:pageshadow="2"
     inkscape:zoom="1.979899"
     inkscape:cx="434.68713"
     inkscape:cy="564.12519"
     inkscape:document-units="mm"
     inkscape:current-layer="layer2"
     showgrid="false"
     inkscape:window-width="1920"
     inkscape:window-height="1017"
     inkscape:window-x="-8"
     inkscape:window-y="-8"
     inkscape:window-maximized="1" />
  <metadata
     id="metadata5">
    <rdf:RDF>
      <cc:Work
         rdf:about="">
        <dc:format>image/svg+xml</dc:format>
        <dc:type
           rdf:resource="http://purl.org/dc/dcmitype/StillImage" />
        <dc:title></dc:title>
      </cc:Work>
    </rdf:RDF>
  </metadata>
  <g
     inkscape:label="Layer 1"
     inkscape:groupmode="layer"
     id="layer1"
     sodipodi:insensitive="true">
    <circle
       style="opacity:1;fill:#ff2a2a;fill-opacity:1;fill-rule:nonzero;stroke:#000000;stroke-width:2;stroke-linecap:round;stroke-linejoin:round;stroke-miterlimit:4;stroke-dasharray:none;stroke-opacity:1;paint-order:normal"
       id="path817"
       cx="112.78773"
       cy="144.38908"
       r="51.583019" />
  </g>
  <g
     inkscape:groupmode="layer"
     id="layer2"
     inkscape:label="Layer 2">
    <path
       style="fill:#000000;stroke-width:0.1622692"
       d="m 78.823538,175.05083 c -0.49776,-0.49775 -0.50877,-1.06403 -0.0295,-1.51432 0.31702,-0.29783 0.59624,-0.35309 1.98779,-0.39339 l 1.61897,-0.0469 0.0811,-13.33857 c 0.0647,-10.63746 0.12382,-13.38129 0.29191,-13.54948 0.16275,-0.16284 1.64208,-0.2294 6.490768,-0.29204 l 6.27999,-0.0811 0.0416,-11.71301 0.0416,-11.71301 0.42649,-0.33548 c 0.35828,-0.28182 0.65656,-0.33547 1.86503,-0.33547 h 1.43854 v -2.27177 c 0,-2.05541 0.0309,-2.30268 0.32454,-2.59631 0.21391,-0.21391 0.540894,-0.32454 0.959254,-0.32454 h 0.63473 l 0.0549,-1.79961 c 0.0686,-2.2471 0.20666,-2.41939 1.939,-2.41939 h 1.1179 v -4.30013 c 0,-4.08378 0.0163,-4.31646 0.32454,-4.62467 0.32281,-0.32281 1.05479,-0.4279 1.39557,-0.20036 0.48803,0.32588 0.55166,0.89988 0.55166,4.97663 v 4.14853 h 1.18601 c 1.7456,0 1.79853,0.0641 1.89711,2.29871 l 0.0811,1.83916 0.67217,0.049 c 1.14373,0.0834 1.26668,0.35704 1.32763,2.9542 l 0.0526,2.24 1.51284,0.0558 c 2.33139,0.086 2.19535,-0.22065 2.19535,4.94905 v 4.27498 h 6.73417 c 6.51781,0 6.7446,0.0104 7.05871,0.32454 0.3147,0.3147 0.32454,0.5409 0.32454,7.46438 v 7.13985 h 6.40963 c 6.19328,0 6.42059,0.011 6.73418,0.32454 0.31926,0.31926 0.32453,0.54089 0.32453,13.63061 v 13.30607 h 2.34113 c 2.33588,0 2.34188,9.8e-4 2.67744,0.42756 0.44166,0.56148 0.42461,0.95933 -0.062,1.44591 l -0.3983,0.3983 h -34.2535 -34.253562 z m 9.986928,-3.85388 c 0.0446,-1.0446 0.15644,-1.97425 0.24847,-2.06589 0.35522,-0.35367 1.12903,-0.37298 1.54256,-0.0385 0.37635,0.30443 0.40278,0.43297 0.45425,2.2085 l 0.0546,1.88526 2.21712,-0.0451 2.21713,-0.0451 0.0416,-12.45416 0.0416,-12.45416 h -5.43701 -5.437028 v 12.49972 12.49972 l 1.9878,-0.0456 1.987798,-0.0456 z m -1.246038,-4.04787 c -0.19445,-0.0975 -0.44256,-0.39211 -0.55134,-0.65473 -0.1715,-0.41404 -0.15457,-0.53544 0.1274,-0.91341 0.32489,-0.4355 0.32743,-0.43594 2.778338,-0.48067 2.28007,-0.0416 2.47635,-0.0216 2.7819,0.28397 0.41286,0.41286 0.42022,0.99103 0.0189,1.48722 -0.29571,0.36561 -0.41222,0.38471 -2.55574,0.41896 -1.37326,0.0219 -2.383288,-0.033 -2.599468,-0.14134 z m -0.22345,-4.98074 c -0.50244,-0.40685 -0.50244,-1.26641 0,-1.67326 0.32069,-0.25968 0.67677,-0.29925 2.692708,-0.29925 2.31646,0 2.32412,0.001 2.65946,0.42755 0.44166,0.56148 0.42461,0.95933 -0.062,1.44592 -0.38477,0.38477 -0.47507,0.3983 -2.65946,0.3983 -1.955698,0 -2.311088,-0.0404 -2.630728,-0.29926 z m -0.1506,-5.00804 c -0.40412,-0.51376 -0.33298,-1.11065 0.18456,-1.54858 0.28459,-0.24081 0.6793,-0.28397 2.596768,-0.28397 2.18438,0 2.27469,0.0135 2.65946,0.3983 0.48659,0.48658 0.50364,0.88444 0.062,1.44591 l -0.33631,0.42756 h -2.41049 -2.410478 z m 0.45998,-4.44974 c -0.57587,-0.21103 -0.88564,-0.95016 -0.61415,-1.46538 0.11008,-0.20891 0.2805,-0.43348 0.3787,-0.49905 0.0982,-0.0656 1.255598,-0.12033 2.572008,-0.1217 2.17899,-0.002 2.42255,0.0266 2.71801,0.32205 0.5958,0.5958 0.34456,1.47083 -0.5076,1.7679 -0.62529,0.21798 -3.949318,0.21519 -4.546968,-0.004 z m 14.628452,18.46539 c 0.0701,-1.6581 0.12415,-1.95166 0.39612,-2.15007 0.6447,-0.47031 1.41812,-0.19567 1.69632,0.60235 0.0986,0.28295 0.17933,1.19725 0.17933,2.03179 v 1.51734 h 1.21702 1.21702 v -1.79233 c 0,-1.68662 0.0235,-1.81583 0.3983,-2.19064 0.48658,-0.48658 0.88444,-0.50364 1.44591,-0.062 0.41734,0.32828 0.42756,0.38066 0.42756,2.19064 v 1.85431 h 2.02837 2.02836 v -24.58378 -24.58379 h -7.70779 -7.707784 v 24.5885 24.58849 l 2.150064,-0.0453 2.15007,-0.0453 z m -1.56026,-4.22895 c -0.58389,-0.26145 -0.816294,-0.89431 -0.52887,-1.44019 0.27136,-0.51537 0.45272,-0.59989 1.29321,-0.60269 0.87667,-0.003 1.28273,0.33911 1.28273,1.08046 0,0.89865 -1.06805,1.40079 -2.04707,0.96242 z m 4.32154,0.0257 c -0.57244,-0.30101 -0.78819,-1.00156 -0.47882,-1.55477 0.20771,-0.37144 0.36619,-0.44233 1.08176,-0.48395 0.67077,-0.039 0.90492,0.0178 1.17113,0.28397 0.97935,0.97935 -0.48819,2.43091 -1.77407,1.75475 z m 4.38315,0.02 c -0.51025,-0.20363 -0.64808,-0.42626 -0.65117,-1.0518 -0.003,-0.69704 0.43255,-1.03934 1.32386,-1.03934 1.03631,0 1.47537,0.53286 1.22345,1.48478 -0.0757,0.28607 -0.2852,0.48978 -0.6258,0.60851 -0.60343,0.21035 -0.73841,0.21013 -1.27034,-0.002 z m -9.0179,-5.08574 c -0.486584,-0.48659 -0.503644,-0.88444 -0.062,-1.44592 0.43496,-0.55295 1.59101,-0.60973 2.09772,-0.10301 0.32281,0.3228 0.4279,1.05479 0.20036,1.39556 -0.42882,0.64222 -1.66262,0.72684 -2.2361,0.15337 z m 4.41053,0.062 c -0.52311,-0.41147 -0.56995,-1.14398 -0.10302,-1.61091 0.50672,-0.50672 1.66277,-0.44994 2.09772,0.10301 0.44166,0.56148 0.42461,0.95933 -0.062,1.44592 -0.50203,0.50203 -1.33915,0.52888 -1.93272,0.062 z m 4.27825,0.0118 c -0.45474,-0.45474 -0.43536,-1.3644 0.0361,-1.69463 0.48996,-0.34318 1.4673,-0.32007 1.91859,0.0454 0.48715,0.39446 0.47883,1.28812 -0.0157,1.68857 -0.48767,0.39489 -1.52585,0.37385 -1.939,-0.0393 z m -8.75076,-4.9711 c -0.441664,-0.56147 -0.424604,-0.95932 0.062,-1.44591 0.78908,-0.78908 2.36028,-0.29024 2.36028,0.74936 0,0.70697 -0.50747,1.12411 -1.36751,1.12411 -0.58286,0 -0.7819,-0.0807 -1.05475,-0.42756 z m 4.36949,0.10302 c -0.46693,-0.46693 -0.42009,-1.19944 0.10302,-1.61091 0.59357,-0.4669 1.43069,-0.44005 1.93272,0.062 0.48659,0.48659 0.50364,0.88444 0.062,1.44591 -0.43495,0.55296 -1.591,0.60974 -2.09772,0.10302 z m 4.41738,0.0719 c -0.25395,-0.17787 -0.36065,-0.41791 -0.36065,-0.81135 0,-0.76969 0.47089,-1.20782 1.29816,-1.20782 0.93604,0 1.41611,0.53594 1.30819,1.46042 -0.0841,0.72029 -1.50893,1.0748 -2.2457,0.55875 z m -8.65883,-4.78061 c -0.35125,-0.20512 -0.501934,-0.8508 -0.31394,-1.34525 0.27975,-0.73579 1.62682,-0.91475 2.32419,-0.30877 0.37407,0.32505 0.3668,1.20709 -0.0128,1.5506 -0.32818,0.297 -1.55706,0.36063 -1.99748,0.10342 z m 4.16952,-0.19551 c -0.33541,-0.47886 -0.31904,-0.98178 0.0466,-1.43338 0.23636,-0.29191 0.46332,-0.36956 1.08003,-0.36956 0.61672,0 0.84367,0.0777 1.08004,0.36956 0.71851,0.88731 0.13629,1.79402 -1.15197,1.79402 -0.64496,0 -0.85164,-0.0707 -1.05475,-0.36064 z m 4.39722,0.0639 c -0.36785,-0.40647 -0.34084,-1.21024 0.0526,-1.56633 0.45326,-0.41019 1.55674,-0.38783 1.98479,0.0402 0.40781,0.40782 0.42658,1.07881 0.0421,1.5037 -0.39139,0.43248 -1.69566,0.44654 -2.07948,0.0224 z m -8.6328,-4.80736 c -0.486584,-0.48659 -0.503644,-0.88444 -0.062,-1.44591 0.27285,-0.34688 0.47189,-0.42756 1.05475,-0.42756 0.86004,0 1.36751,0.41714 1.36751,1.12411 0,1.0396 -1.5712,1.53844 -2.36028,0.74936 z m 4.41053,0.062 c -0.52311,-0.41147 -0.56995,-1.14398 -0.10302,-1.61091 0.46597,-0.46597 1.6567,-0.44865 2.10318,0.0306 1.0557,1.13316 -0.75245,2.56177 -2.00016,1.58032 z m 4.60279,0.22371 c -0.6694,-0.23924 -0.88698,-1.40676 -0.35233,-1.89061 0.65975,-0.59706 2.16219,-0.24533 2.31856,0.5428 0.20277,1.02195 -0.85301,1.74566 -1.96623,1.34781 z m -9.0753,-5.18302 c -0.441664,-0.56148 -0.424604,-0.95933 0.062,-1.44592 0.83506,-0.83505 2.36028,-0.35842 2.36028,0.73759 0,0.7188 -0.50213,1.13588 -1.36751,1.13588 -0.58286,0 -0.7819,-0.0807 -1.05475,-0.42755 z m 4.36949,0.10301 c -0.46693,-0.46693 -0.42009,-1.19944 0.10302,-1.61091 0.59357,-0.4669 1.43069,-0.44005 1.93272,0.062 0.48659,0.48659 0.50364,0.88444 0.062,1.44592 -0.43495,0.55296 -1.591,0.60973 -2.09772,0.10301 z m 4.41738,0.0719 c -0.26749,-0.18736 -0.36065,-0.41551 -0.36065,-0.88328 0,-0.75899 0.43074,-1.13589 1.29816,-1.13589 0.86741,0 1.29815,0.3769 1.29815,1.13589 0,0.75899 -0.43074,1.13588 -1.29815,1.13588 -0.31728,0 -0.73916,-0.11367 -0.93751,-0.2526 z m -8.69529,-4.85984 c -0.898934,-0.89893 -0.0461,-2.21742 1.26528,-1.95615 0.26189,0.0522 0.60874,0.21485 0.77078,0.3615 0.38362,0.34717 0.38244,1.22244 -0.002,1.57046 -0.38232,0.346 -1.6965,0.36163 -2.03394,0.0242 z m 4.20598,-0.11628 c -0.3383,-0.48299 -0.31842,-0.98255 0.0576,-1.44691 0.24597,-0.30376 0.46732,-0.38308 1.06908,-0.38308 0.60177,0 0.82311,0.0793 1.06909,0.38308 0.72911,0.90042 0.15649,1.80756 -1.14102,1.80756 -0.64496,0 -0.85164,-0.0707 -1.05475,-0.36065 z m 4.39722,0.0639 c -0.33415,-0.36923 -0.34896,-1.22236 -0.0268,-1.5445 0.6506,-0.6506 2.10136,-0.42392 2.30915,0.3608 0.1424,0.53778 0.0827,0.83802 -0.23778,1.19647 -0.35637,0.39857 -1.67978,0.3903 -2.04455,-0.0128 z m -8.37932,-4.61774 c -0.62144,-0.31443 -0.789654,-0.98935 -0.38281,-1.53604 0.27345,-0.36746 0.47623,-0.45445 1.15254,-0.49445 0.70003,-0.0414 0.85866,0.006 1.07889,0.32008 0.81449,1.16286 -0.50957,2.38793 -1.84862,1.71041 z m 4.17573,-0.11219 c -0.95046,-0.74924 -0.37965,-1.9509 0.92673,-1.9509 1.73704,0 1.88669,1.9869 0.16693,2.21631 -0.50576,0.0675 -0.74505,0.009 -1.09366,-0.26541 z m 4.50297,0.12697 c -0.452,-0.25632 -0.56259,-0.45942 -0.56545,-1.03854 -0.003,-0.69703 0.43255,-1.03933 1.32386,-1.03933 1.03132,0 1.47541,0.53346 1.22636,1.47317 -0.18089,0.68255 -1.26501,1.01284 -1.98477,0.6047 z m -8.93218,-5.07248 c -0.21906,-0.21906 -0.39829,-0.55097 -0.39829,-0.73758 0,-0.58131 0.70942,-1.13589 1.45304,-1.13589 0.8006,0 1.30553,0.43932 1.30553,1.13589 0,1.096 -1.52522,1.57264 -2.36028,0.73758 z m 4.30751,0.0738 c -0.75331,-0.75331 -0.12055,-1.94723 1.03202,-1.94723 0.69171,0 1.40202,0.57548 1.40202,1.13589 0,0.18661 -0.17923,0.51852 -0.3983,0.73758 -0.51436,0.51437 -1.55734,0.55216 -2.03574,0.0738 z m 4.41738,0.0719 c -0.26749,-0.18736 -0.36065,-0.41551 -0.36065,-0.88328 0,-0.75899 0.43074,-1.13589 1.29816,-1.13589 0.86741,0 1.29815,0.3769 1.29815,1.13589 0,0.75899 -0.43074,1.13588 -1.29815,1.13588 -0.31728,0 -0.73916,-0.11367 -0.93751,-0.2526 z m 10.67366,43.0843 c 0,-1.68662 0.0235,-1.81583 0.3983,-2.19064 0.48658,-0.48658 0.88443,-0.50364 1.44591,-0.062 0.41733,0.32828 0.42756,0.38066 0.42756,2.19064 v 1.85431 h 2.67744 2.67744 v -19.95911 -19.95911 h -5.92282 -5.92283 v 19.95911 19.95911 h 2.1095 2.1095 z m -0.97362,-4.31931 c -0.79702,-0.31742 -1.04315,-1.11185 -0.55874,-1.80344 0.20311,-0.28998 0.40979,-0.36065 1.05475,-0.36065 1.2741,0 1.87273,0.90874 1.16725,1.77192 -0.28797,0.35235 -1.21463,0.57084 -1.66326,0.39217 z m 4.17811,-0.075 c -0.68507,-0.25943 -0.85635,-1.21082 -0.32499,-1.8051 0.35638,-0.39857 1.67978,-0.3903 2.04456,0.0128 0.35564,0.39297 0.34184,1.20932 -0.0261,1.54227 -0.38703,0.35026 -1.13662,0.46094 -1.6935,0.25006 z m -4.5619,-5.0217 c -0.5231,-0.41147 -0.56995,-1.14398 -0.10301,-1.61091 0.50671,-0.50672 1.66276,-0.44994 2.09772,0.10301 0.44166,0.56148 0.4246,0.95933 -0.062,1.44592 -0.50204,0.50203 -1.33916,0.52888 -1.93273,0.062 z m 4.2865,0.0511 c -0.49455,-0.40045 -0.50286,-1.29411 -0.0157,-1.68857 0.45129,-0.36543 1.42863,-0.38854 1.91859,-0.0454 0.47147,0.33023 0.49085,1.23989 0.0361,1.69463 -0.41315,0.41315 -1.45132,0.43419 -1.93899,0.0393 z m -4.38951,-4.90738 c -0.46694,-0.46693 -0.42009,-1.19944 0.10301,-1.61091 0.59357,-0.4669 1.43069,-0.44005 1.93273,0.062 0.48658,0.48659 0.50364,0.88444 0.062,1.44591 -0.43496,0.55296 -1.59101,0.60974 -2.09772,0.10302 z m 4.34994,0.0406 c -0.38844,-0.45229 -0.43567,-0.75214 -0.20489,-1.301 0.24577,-0.58451 0.75295,-0.77818 1.6146,-0.61654 0.62816,0.11784 0.89338,0.47648 0.89338,1.20803 0,0.32061 -0.12383,0.57501 -0.36064,0.74088 -0.49672,0.34791 -1.63245,0.32957 -1.94245,-0.0314 z m -4.42188,-4.94475 c -0.75099,-1.0722 0.34751,-2.19415 1.69006,-1.72613 0.83665,0.29166 1.08201,1.1716 0.49138,1.76224 -0.4808,0.48079 -1.83509,0.45838 -2.18144,-0.0361 z m 4.37694,0.0415 c -0.38453,-0.42489 -0.36577,-1.09588 0.0421,-1.5037 0.42804,-0.42804 1.53153,-0.4504 1.98478,-0.0402 0.40951,0.37059 0.42275,1.23407 0.0245,1.59452 -0.43168,0.39067 -1.6798,0.35988 -2.05128,-0.0506 z m -4.20199,-4.72296 c -0.5231,-0.41147 -0.56995,-1.14398 -0.10301,-1.61091 0.50671,-0.50672 1.66276,-0.44994 2.09772,0.10302 0.44166,0.56147 0.4246,0.95932 -0.062,1.44591 -0.50204,0.50203 -1.33916,0.52888 -1.93273,0.062 z m 4.48595,0.17909 c -0.35649,-0.15166 -0.64458,-0.83275 -0.55124,-1.30319 0.0266,-0.13388 0.16256,-0.3712 0.3022,-0.52738 0.35638,-0.39857 1.67978,-0.3903 2.04456,0.0128 0.32013,0.35374 0.35102,1.15113 0.06,1.5491 -0.24392,0.33359 -1.33249,0.49122 -1.85554,0.2687 z m -4.58896,-5.03539 c -0.46694,-0.46693 -0.42009,-1.19944 0.10301,-1.61091 0.59357,-0.4669 1.43069,-0.44005 1.93273,0.062 0.48658,0.48659 0.50364,0.88444 0.062,1.44592 -0.43496,0.55296 -1.59101,0.60973 -2.09772,0.10301 z m 4.37379,0.0266 c -0.48714,-0.39446 -0.47883,-1.28812 0.0157,-1.68857 0.48766,-0.39489 1.52584,-0.37385 1.93899,0.0393 0.45474,0.45474 0.43536,1.3644 -0.0361,1.69463 -0.48996,0.34318 -1.4673,0.32007 -1.91859,-0.0454 z m -4.44573,-4.93076 c -0.64185,-0.91638 -0.0637,-1.82999 1.15806,-1.82999 0.56879,0 0.79519,0.0836 1.03771,0.38308 0.72912,0.90042 0.15649,1.80756 -1.14102,1.80756 -0.64496,0 -0.85164,-0.0707 -1.05475,-0.36065 z m 4.41186,0.0767 c -0.3205,-0.35845 -0.38017,-0.65869 -0.23777,-1.19647 0.20778,-0.78472 1.65855,-1.0114 2.30915,-0.3608 0.33754,0.33754 0.30576,1.2462 -0.055,1.57269 -0.4096,0.37069 -1.67981,0.36098 -2.01636,-0.0154 z m 11.72473,33.54179 c 0,-1.68662 0.0235,-1.81583 0.39829,-2.19064 0.48659,-0.48658 0.88444,-0.50364 1.44592,-0.062 0.41733,0.32828 0.42756,0.38066 0.42756,2.19064 v 1.85431 h 2.1095 2.1095 v -12.49472 -12.49473 h -5.59829 -5.59829 v 1.05475 1.05475 h 1.84188 c 1.01304,0 2.07338,0.0807 2.35633,0.17933 0.79805,0.27821 1.07268,1.05166 0.6023,1.69631 -0.20276,0.27789 -0.4942,0.32455 -2.4746,0.39612 l -2.24478,0.0811 -0.0474,1.25759 -0.0474,1.25758 h 2.1237 c 2.03844,0 2.13969,0.016 2.522,0.3983 0.48658,0.48659 0.50364,0.88444 0.062,1.44591 -0.33349,0.42397 -0.35459,0.42756 -2.51517,0.42756 h -2.17886 v 1.29815 1.29816 h 2.17886 c 2.16058,0 2.18168,0.004 2.51517,0.42755 0.44166,0.56148 0.4246,0.95933 -0.062,1.44592 -0.38231,0.38231 -0.48356,0.3983 -2.522,0.3983 h -2.1237 l 0.0474,1.25758 0.0474,1.25759 2.24478,0.0811 c 1.9804,0.0716 2.27184,0.11824 2.4746,0.39612 0.31713,0.43463 0.28752,0.95703 -0.08,1.41144 -0.29369,0.36312 -0.42473,0.38585 -2.51518,0.43622 l -2.20534,0.0531 v 2.98941 2.9894 h 2.3529 2.35291 z m 2.55541,-4.39432 c -0.68507,-0.25943 -0.85635,-1.21082 -0.32498,-1.8051 0.36829,-0.4119 1.68046,-0.38954 2.06483,0.0352 0.8929,0.98663 -0.3824,2.28397 -1.73985,1.76991 z m -0.24754,-4.93799 c -0.26749,-0.18735 -0.36064,-0.41551 -0.36064,-0.88328 0,-0.75899 0.43073,-1.13588 1.29815,-1.13588 0.83286,0 1.29815,0.38135 1.29815,1.06395 0,0.7554 -0.47273,1.20782 -1.26204,1.20782 -0.33714,0 -0.77526,-0.11368 -0.97362,-0.25261 z m -0.009,-4.89944 c -0.86834,-0.73977 -0.27412,-1.9878 0.94645,-1.9878 0.82726,0 1.29815,0.43813 1.29815,1.20782 0,0.39344 -0.10669,0.63348 -0.36064,0.81135 -0.48213,0.33769 -1.47006,0.32124 -1.88396,-0.0314 z m -0.10343,-4.90327 c -0.38396,-0.42426 -0.36594,-1.09571 0.0403,-1.50196 0.44119,-0.44119 1.51099,-0.47231 1.96958,-0.0573 0.42604,0.38556 0.44806,1.24182 0.0414,1.60985 -0.43169,0.39067 -1.67981,0.35988 -2.05129,-0.0506 z m -27.02269,-31.97241 v -1.46042 h -3.9756 -3.97559 v 1.46042 1.46043 h 3.97559 3.9756 z m -2.1095,-4.7058 v -0.97362 h -1.94723 -1.94723 v 0.86544 c 0,0.47599 0.0487,0.91411 0.10818,0.97361 0.0595,0.0595 0.93575,0.10818 1.94723,0.10818 h 1.83905 z"
       id="path837"
       inkscape:connector-curvature="0" />
  </g>
</svg>
