<svg id="Layer_1" height="512" viewBox="0 0 128 128" width="512" xmlns="http://www.w3.org/2000/svg" data-name="Layer 1"><rect fill="#d6c1a7" height="146.106" rx="19.904" transform="matrix(-.707 -.707 .707 -.707 64 154.51)" width="39.808" x="44.096" y="-9.053"/><rect fill="#f3dbbd" height="146.106" rx="19.904" transform="matrix(.707 -.707 .707 .707 -26.51 64.001)" width="39.808" x="44.097" y="-9.052"/><path d="m50.101 44.101h27.8v39.8h-27.8z" fill="#d6c1a7" transform="matrix(.707 -.707 .707 .707 -26.51 64.001)"/><g fill="#102434"><circle cx="98.588" cy="29.411" r="3" transform="matrix(.707 -.707 .707 .707 8.079 78.327)"/><circle cx="90.881" cy="21.704" r="3" transform="matrix(.967 -.256 .256 .967 -2.528 23.97)"/><circle cx="106.296" cy="37.119" r="3" transform="matrix(.707 -.707 .707 .707 4.887 86.035)"/><circle cx="90.633" cy="37.366" r="3" transform="matrix(.707 -.707 .707 .707 .124 75.032)"/><circle cx="82.926" cy="29.659" r="3" transform="matrix(.707 -.707 .707 .707 3.317 67.324)"/><circle cx="98.341" cy="45.074" r="3" transform="matrix(.707 -.707 .707 .707 -3.069 82.739)"/><circle cx="29.411" cy="98.588" r="3" transform="matrix(.707 -.707 .707 .707 -61.098 49.673)"/><circle cx="21.704" cy="90.881" r="3" transform="matrix(.707 -.707 .707 .707 -57.906 41.965)"/><circle cx="37.119" cy="106.296" r="3" transform="matrix(.707 -.707 .707 .707 -64.291 57.381)"/><circle cx="37.366" cy="90.633" r="3" transform="matrix(.707 -.707 .707 .707 -53.143 52.968)"/><circle cx="29.659" cy="82.926" r="3" transform="matrix(.707 -.707 .707 .707 -49.951 45.26)"/><circle cx="45.074" cy="98.341" r="3" transform="matrix(.707 -.707 .707 .707 -56.336 60.676)"/><circle cx="29.412" cy="29.412" r="3" transform="matrix(.707 -.707 .707 .707 -12.183 29.412)"/><circle cx="21.705" cy="37.12" r="3" transform="matrix(.967 -.256 .256 .967 -8.773 6.787)"/><circle cx="37.12" cy="21.705" r="3" transform="matrix(.707 -.707 .707 .707 -4.475 32.605)"/><circle cx="37.367" cy="37.367" r="3" transform="matrix(.707 -.707 .707 .707 -15.478 37.367)"/><circle cx="29.659" cy="45.075" r="3" transform="matrix(.707 -.707 .707 .707 -23.186 34.174)"/><circle cx="45.075" cy="29.659" r="3" transform="matrix(.707 -.707 .707 .707 -7.77 40.56)"/><circle cx="98.589" cy="98.589" r="3" transform="matrix(.707 -.707 .707 .707 -40.837 98.59)"/><circle cx="90.882" cy="106.297" r="3" transform="matrix(.707 -.707 .707 .707 -48.545 95.396)"/><circle cx="106.297" cy="90.882" r="3" transform="matrix(.707 -.707 .707 .707 -33.129 101.782)"/><circle cx="90.634" cy="90.635" r="3" transform="matrix(.707 -.707 .707 .707 -37.542 90.634)"/><circle cx="82.927" cy="98.342" r="3" transform="matrix(.707 -.707 .707 .707 -45.25 87.441)"/><circle cx="98.342" cy="82.927" r="3" transform="matrix(.707 -.707 .707 .707 -29.834 93.827)"/><path d="m116.895 86.271-50.421-50.42 22.273-22.274a18.156 18.156 0 0 1 25.676 25.676l-16.94 16.939a1.75 1.75 0 1 0 2.475 2.475l16.942-16.939a21.655 21.655 0 1 0 -30.628-30.628l-22.272 22.276-22.27-22.269a21.654 21.654 0 1 0 -30.623 30.623 1.75 1.75 0 0 0 2.475-2.475 18.154 18.154 0 0 1 25.674-25.673l75.164 75.164a18.154 18.154 0 0 1 -25.674 25.674l-68.791-68.792a1.75 1.75 0 0 0 -2.475 2.472l15.896 15.9-22.276 22.274a21.655 21.655 0 0 0 30.628 30.626l22.272-22.276 22.271 22.271a21.654 21.654 0 0 0 30.623-30.623zm-77.642 28.152a18.156 18.156 0 0 1 -25.676-25.676l22.274-22.274 25.675 25.676z"/><path d="m38.863 61 28.143 28.138a1.749 1.749 0 0 0 2.475 0l19.658-19.658a1.749 1.749 0 0 0 0-2.475l-11.1-11.1a1.75 1.75 0 0 0 -2.475 2.475l9.863 9.862-17.184 17.184-25.668-25.668 17.183-17.183 4.74 4.74a1.75 1.75 0 0 0 2.475-2.475l-5.973-5.977a1.749 1.749 0 0 0 -2.475 0l-19.662 19.658a1.749 1.749 0 0 0 0 2.479z"/><path d="m72.579 54.671a1.75 1.75 0 0 0 1.237-2.988l-2.248-2.248a1.75 1.75 0 0 0 -2.475 2.476l2.248 2.248a1.745 1.745 0 0 0 1.238.512z"/></g></svg>