<?xml version="1.0" encoding="UTF-8" standalone="no"?>
<svg
   xmlns:dc="http://purl.org/dc/elements/1.1/"
   xmlns:cc="http://creativecommons.org/ns#"
   xmlns:rdf="http://www.w3.org/1999/02/22-rdf-syntax-ns#"
   xmlns:svg="http://www.w3.org/2000/svg"
   xmlns="http://www.w3.org/2000/svg"
   xmlns:xlink="http://www.w3.org/1999/xlink"
   xmlns:sodipodi="http://sodipodi.sourceforge.net/DTD/sodipodi-0.dtd"
   xmlns:inkscape="http://www.inkscape.org/namespaces/inkscape"
   version="1.1"
   width="220"
   height="220"
   id="svg11"
   sodipodi:docname="Biohazard.svg"
   inkscape:version="0.92.4 (5da689c313, 2019-01-14)"
   inkscape:export-filename="D:\Win10\Desktop\Tesis\Code\PandemicWeb\Assets\Images\Outbreaks.png"
   inkscape:export-xdpi="96"
   inkscape:export-ydpi="96">
  <metadata
     id="metadata15">
    <rdf:RDF>
      <cc:Work
         rdf:about="">
        <dc:format>image/svg+xml</dc:format>
        <dc:type
           rdf:resource="http://purl.org/dc/dcmitype/StillImage" />
        <dc:title></dc:title>
      </cc:Work>
    </rdf:RDF>
  </metadata>
  <sodipodi:namedview
     pagecolor="#ffffff"
     bordercolor="#666666"
     borderopacity="1"
     objecttolerance="10"
     gridtolerance="10"
     guidetolerance="10"
     inkscape:pageopacity="0"
     inkscape:pageshadow="2"
     inkscape:window-width="1920"
     inkscape:window-height="1017"
     id="namedview13"
     showgrid="false"
     inkscape:zoom="1.8153846"
     inkscape:cx="133.01175"
     inkscape:cy="124.87006"
     inkscape:window-x="-8"
     inkscape:window-y="-8"
     inkscape:window-maximized="1"
     inkscape:current-layer="layer2" />
  <defs
     id="defs3">
    <path
       d="M 2.8117,-1.046 A 3,3 0 0 1 0.5,2.958 V 4.5119 A 10.5,10.5 0 0 1 2,25.3078 v 0.5583 A 15,15 0 0 0 14.7975,8.5433 15,15 0 0 0 23.4007,-11.201 l -0.4835,0.2792 A 10.5,10.5 0 0 1 4.1574,-1.8229 Z m 3.4148,8.871 a 10,10 0 0 1 -12.453,0 9.5,9.5 0 0 0 -2.1756,2.7417 13.5,13.5 0 0 0 16.8042,0 A 10,10 0 0 0 6.2265,7.825 Z"
       id="p"
       transform="matrix(10,0,0,-10,260,260)"
       inkscape:connector-curvature="0" />
    <filter
       style="color-interpolation-filters:sRGB"
       id="filter2791"
       inkscape:label="filter0" />
    <filter
       y="-0.25"
       height="1.5"
       inkscape:menu-tooltip="Darkens the edge with an inner blur and adds a flexible glow"
       inkscape:menu="Shadows and Glows"
       inkscape:label="Dark and Glow"
       style="color-interpolation-filters:sRGB;"
       id="filter2893">
      <feGaussianBlur
         stdDeviation="5"
         result="result6"
         id="feGaussianBlur2883" />
      <feComposite
         result="result8"
         in="SourceGraphic"
         operator="atop"
         in2="result6"
         id="feComposite2885" />
      <feComposite
         result="result9"
         operator="over"
         in2="SourceAlpha"
         in="result8"
         id="feComposite2887" />
      <feColorMatrix
         values="1 0 0 0 0 0 1 0 0 0 0 0 1 0 0 0 0 0 1 0 "
         result="result10"
         id="feColorMatrix2889" />
      <feBlend
         in="result10"
         mode="normal"
         in2="result6"
         id="feBlend2891" />
    </filter>
    <filter
       inkscape:collect="always"
       style="color-interpolation-filters:sRGB"
       id="filter3817"
       x="-0.42214057"
       width="1.8442811"
       y="-0.24257089"
       height="1.4851418">
      <feGaussianBlur
         inkscape:collect="always"
         stdDeviation="40.536912"
         id="feGaussianBlur3819" />
    </filter>
    <filter
       inkscape:collect="always"
       style="color-interpolation-filters:sRGB"
       id="filter3821"
       x="-0.23696637"
       width="1.4739327"
       y="-0.41426616"
       height="1.8285323">
      <feGaussianBlur
         inkscape:collect="always"
         stdDeviation="40.536912"
         id="feGaussianBlur3823" />
    </filter>
    <filter
       inkscape:collect="always"
       style="color-interpolation-filters:sRGB"
       id="filter3825"
       x="-0.29545487"
       width="1.5909097"
       y="-0.26246615"
       height="1.5249323">
      <feGaussianBlur
         inkscape:collect="always"
         stdDeviation="40.536912"
         id="feGaussianBlur3827" />
    </filter>
  </defs>
  <g
     inkscape:groupmode="layer"
     id="layer2"
     inkscape:label="glower"
     style="display:inline">
    <use
       xlink:href="#p"
       id="use5-8"
       x="0"
       y="0"
       width="100%"
       height="100%"
       transform="matrix(0.4077253,0,0,0.4313491,3.991454,9.4224123)"
       style="display:inline;fill:#00ff00;filter:url(#filter3825)" />
    <use
       xlink:href="#p"
       transform="matrix(-0.20386265,0.37355928,-0.35310047,-0.21567455,254.81044,80.523162)"
       id="use7-0"
       x="0"
       y="0"
       width="100%"
       height="100%"
       style="display:inline;fill:#00ff00;filter:url(#filter3821)" />
    <use
       xlink:href="#p"
       transform="matrix(-0.20386265,-0.37355928,0.35310047,-0.21567455,71.198203,274.77397)"
       id="use9-3"
       x="0"
       y="0"
       width="100%"
       height="100%"
       style="display:inline;fill:#00ff00;filter:url(#filter3817)" />
  </g>
  <g
     inkscape:groupmode="layer"
     id="layer1"
     inkscape:label="biohazard"
     style="display:inline"
     sodipodi:insensitive="true">
    <use
       xlink:href="#p"
       id="use5"
       x="0"
       y="0"
       width="100%"
       height="100%"
       transform="matrix(0.4077253,0,0,0.4313491,3.9914535,9.4224183)" />
    <use
       xlink:href="#p"
       transform="matrix(-0.20386265,0.37355928,-0.35310047,-0.21567455,254.81044,80.523162)"
       id="use7"
       x="0"
       y="0"
       width="100%"
       height="100%" />
    <use
       xlink:href="#p"
       transform="matrix(-0.20386265,-0.37355928,0.35310047,-0.21567455,71.198203,274.77398)"
       id="use9"
       x="0"
       y="0"
       width="100%"
       height="100%" />
  </g>
</svg>
