<?xml version="1.0" encoding="UTF-8" standalone="no"?>
<svg
   xmlns:dc="http://purl.org/dc/elements/1.1/"
   xmlns:cc="http://creativecommons.org/ns#"
   xmlns:rdf="http://www.w3.org/1999/02/22-rdf-syntax-ns#"
   xmlns:svg="http://www.w3.org/2000/svg"
   xmlns="http://www.w3.org/2000/svg"
   xmlns:xlink="http://www.w3.org/1999/xlink"
   xmlns:sodipodi="http://sodipodi.sourceforge.net/DTD/sodipodi-0.dtd"
   xmlns:inkscape="http://www.inkscape.org/namespaces/inkscape"
   version="1.1"
   width="400"
   height="600"
   id="svg11"
   sodipodi:docname="InfectCard.svg"
   inkscape:version="0.92.4 (5da689c313, 2019-01-14)"
   inkscape:export-filename="D:\Win10\Desktop\Tesis\Code\PandemicWeb\Assets\Images\CardInfect.png"
   inkscape:export-xdpi="96"
   inkscape:export-ydpi="96">
  <metadata
     id="metadata15">
    <rdf:RDF>
      <cc:Work
         rdf:about="">
        <dc:format>image/svg+xml</dc:format>
        <dc:type
           rdf:resource="http://purl.org/dc/dcmitype/StillImage" />
        <dc:title></dc:title>
      </cc:Work>
    </rdf:RDF>
  </metadata>
  <sodipodi:namedview
     pagecolor="#ffffff"
     bordercolor="#666666"
     borderopacity="1"
     objecttolerance="10"
     gridtolerance="10"
     guidetolerance="10"
     inkscape:pageopacity="0"
     inkscape:pageshadow="2"
     inkscape:window-width="1920"
     inkscape:window-height="1017"
     id="namedview13"
     showgrid="false"
     inkscape:zoom="0.90769231"
     inkscape:cx="337.12165"
     inkscape:cy="300.22713"
     inkscape:window-x="-8"
     inkscape:window-y="-8"
     inkscape:window-maximized="1"
     inkscape:current-layer="layer3" />
  <defs
     id="defs3">
    <linearGradient
       inkscape:collect="always"
       id="linearGradient899">
      <stop
         style="stop-color:#008000;stop-opacity:1;"
         offset="0"
         id="stop895" />
      <stop
         style="stop-color:#001b00;stop-opacity:0.86934674"
         offset="1"
         id="stop897" />
    </linearGradient>
    <path
       d="M 2.8117,-1.046 A 3,3 0 0 1 0.5,2.958 V 4.5119 A 10.5,10.5 0 0 1 2,25.3078 v 0.5583 A 15,15 0 0 0 14.7975,8.5433 15,15 0 0 0 23.4007,-11.201 l -0.4835,0.2792 A 10.5,10.5 0 0 1 4.1574,-1.8229 Z m 3.4148,8.871 a 10,10 0 0 1 -12.453,0 9.5,9.5 0 0 0 -2.1756,2.7417 13.5,13.5 0 0 0 16.8042,0 A 10,10 0 0 0 6.2265,7.825 Z"
       id="p"
       transform="matrix(10,0,0,-10,260,260)"
       inkscape:connector-curvature="0" />
    <radialGradient
       inkscape:collect="always"
       xlink:href="#linearGradient899"
       id="radialGradient901"
       cx="200"
       cy="300.00002"
       fx="200"
       fy="300.00002"
       r="200"
       gradientTransform="matrix(1,0,0,1.5,0,-150.00001)"
       gradientUnits="userSpaceOnUse" />
  </defs>
  <g
     inkscape:groupmode="layer"
     id="layer3"
     inkscape:label="bg black"
     style="display:inline"
     sodipodi:insensitive="true">
    <rect
       style="opacity:1;fill:#000000;fill-opacity:1;fill-rule:nonzero;stroke:#000000;stroke-width:15.10471535;stroke-linecap:butt;stroke-linejoin:miter;stroke-miterlimit:4;stroke-dasharray:none;stroke-opacity:1;paint-order:normal"
       id="rect904"
       width="384.89529"
       height="584.89526"
       x="7.5523577"
       y="7.5523748"
       ry="11.311895" />
  </g>
  <g
     inkscape:groupmode="layer"
     id="layer2"
     inkscape:label="bg"
     sodipodi:insensitive="true"
     style="display:inline">
    <rect
       style="display:inline;opacity:1;fill:url(#radialGradient901);fill-opacity:1;fill-rule:nonzero;stroke:#000000;stroke-width:5.14771414;stroke-linecap:butt;stroke-linejoin:miter;stroke-miterlimit:4;stroke-dasharray:none;stroke-opacity:1;paint-order:normal"
       id="rect870"
       width="394.85229"
       height="594.85229"
       x="2.5738571"
       y="2.5738759"
       ry="5.9377875" />
  </g>
  <g
     inkscape:groupmode="layer"
     id="layer1"
     inkscape:label="bio"
     style="display:inline"
     transform="translate(0,80)"
     sodipodi:insensitive="true">
    <use
       xlink:href="#p"
       id="use5"
       x="0"
       y="0"
       width="100%"
       height="100%"
       transform="matrix(0.63197424,0,0,0.63197424,35.68674,67.313554)" />
    <use
       xlink:href="#p"
       transform="matrix(-0.31598714,0.54730598,-0.54730598,-0.31598714,424.45609,171.48397)"
       id="use7"
       x="0"
       y="0"
       width="100%"
       height="100%" />
    <use
       xlink:href="#p"
       transform="matrix(-0.31598714,-0.54730598,0.54730598,-0.31598714,139.85722,456.08298)"
       id="use9"
       x="0"
       y="0"
       width="100%"
       height="100%" />
  </g>
</svg>
