<svg id="Capa_1" enable-background="new 0 0 512 512" height="512" viewBox="0 0 512 512" width="512" xmlns="http://www.w3.org/2000/svg"><g><g><g><g><g><g><g><g><g><g><g><g><path d="m453.317 24.694h-394.634c-28.268 0-51.183 22.915-51.183 51.183v245.51c0 28.268 22.915 51.183 51.183 51.183h111.569c6.634 0 12.765 3.534 16.09 9.275l56.788 98.044c5.729 9.891 20.01 9.891 25.739 0l56.788-98.044c3.325-5.74 9.456-9.275 16.09-9.275h111.569c28.268 0 51.183-22.915 51.183-51.183v-245.51c.001-28.268-22.914-51.183-51.182-51.183z" fill="#e28086"/></g></g></g></g></g><g><path d="m262.701 381.844-38.179 65.916 18.609 32.128c5.729 9.891 20.01 9.891 25.739 0l56.788-98.044c3.325-5.741 9.456-9.275 16.09-9.275h-62.956c-6.634 0-12.766 3.534-16.091 9.275z" fill="#dd636e"/><path d="m453.317 24.694h-62.956c28.268 0 51.183 22.915 51.183 51.183v245.51c0 28.268-22.915 51.183-51.183 51.183h62.956c28.268 0 51.183-22.915 51.183-51.183v-245.51c0-28.268-22.915-51.183-51.183-51.183z" fill="#dd636e"/><path d="m504.5 307.787c-4.143 0-7.5 3.358-7.5 7.5v6.098c0 24.087-19.596 43.683-43.683 43.683h-111.569c-9.278 0-17.931 4.987-22.581 13.016l-56.788 98.044c-2.843 4.909-9.919 4.901-12.758 0l-56.788-98.044c-4.65-8.028-13.302-13.016-22.58-13.016h-111.57c-24.087 0-43.683-19.596-43.683-43.683v-245.51c0-24.086 19.596-43.683 43.683-43.683h6.359c4.142 0 7.5-3.358 7.5-7.5s-3.358-7.5-7.5-7.5h-6.359c-32.358 0-58.683 26.325-58.683 58.683v245.51c0 32.358 26.325 58.683 58.683 58.683h111.569c3.944 0 7.623 2.121 9.601 5.534l56.788 98.043c8.614 14.872 30.093 14.893 38.719 0l56.788-98.044c1.977-3.414 5.655-5.534 9.601-5.534h111.569c32.357 0 58.683-26.325 58.683-58.683v-6.098c-.001-4.141-3.358-7.499-7.501-7.499z"/><path d="m453.317 17.192h-353.212c-4.142 0-7.5 3.358-7.5 7.5s3.358 7.5 7.5 7.5h353.212c24.087 0 43.683 19.596 43.683 43.683v205.328c0 4.142 3.357 7.5 7.5 7.5s7.5-3.358 7.5-7.5v-205.328c0-32.358-26.325-58.683-58.683-58.683z"/></g></g></g></g></g><g><g><g><circle cx="256" cy="200.188" fill="#ffe07d" r="124.486"/><path d="m256 75.702c-10.717 0-21.121 1.362-31.05 3.92 53.667 13.829 93.435 62.641 93.435 120.566s-39.768 106.736-93.435 120.565c9.929 2.559 20.334 3.92 31.05 3.92 68.642 0 124.486-55.844 124.486-124.485s-55.844-124.486-124.486-124.486z" fill="#ffd064"/><g><g><g><g><path d="m218.159 176.231c-12.332 0-22.365-10.033-22.365-22.366 0-4.142 3.357-7.5 7.5-7.5s7.5 3.358 7.5 7.5c0 4.062 3.304 7.366 7.365 7.366s7.366-3.304 7.366-7.366c0-4.142 3.357-7.5 7.5-7.5s7.5 3.358 7.5 7.5c0 12.333-10.033 22.366-22.366 22.366z"/></g><g><path d="m293.841 176.231c-12.333 0-22.366-10.033-22.366-22.366 0-4.142 3.357-7.5 7.5-7.5s7.5 3.358 7.5 7.5c0 4.062 3.305 7.366 7.366 7.366s7.365-3.304 7.365-7.366c0-4.142 3.357-7.5 7.5-7.5s7.5 3.358 7.5 7.5c0 12.333-10.033 22.366-22.365 22.366z"/></g></g></g></g><g><path d="m307.448 260.169c-7.848-14.314-28.523-23.932-51.448-23.932s-43.601 9.617-51.448 23.932c-1.99 3.631-6.549 4.961-10.182 2.971-3.632-1.991-4.962-6.55-2.971-10.182 10.563-19.27 35.921-31.721 64.601-31.721s54.037 12.451 64.601 31.721c1.991 3.632.661 8.191-2.971 10.182-3.655 2.004-8.205.637-10.182-2.971z"/></g></g><g><path d="m256 332.173c-72.777 0-131.986-59.208-131.986-131.985s59.209-131.986 131.986-131.986 131.986 59.208 131.986 131.986c0 72.776-59.209 131.985-131.986 131.985zm0-248.971c-64.507 0-116.986 52.479-116.986 116.986 0 64.506 52.479 116.985 116.986 116.985s116.986-52.479 116.986-116.985c0-64.507-52.479-116.986-116.986-116.986z"/></g></g></g></g></g></g></svg>