<?xml version="1.0" encoding="UTF-8" standalone="no"?>
<!-- Created with Inkscape (http://www.inkscape.org/) -->

<svg
   xmlns:dc="http://purl.org/dc/elements/1.1/"
   xmlns:cc="http://creativecommons.org/ns#"
   xmlns:rdf="http://www.w3.org/1999/02/22-rdf-syntax-ns#"
   xmlns:svg="http://www.w3.org/2000/svg"
   xmlns="http://www.w3.org/2000/svg"
   xmlns:sodipodi="http://sodipodi.sourceforge.net/DTD/sodipodi-0.dtd"
   xmlns:inkscape="http://www.inkscape.org/namespaces/inkscape"
   width="210mm"
   height="297mm"
   viewBox="0 0 210 297"
   version="1.1"
   id="svg8"
   inkscape:version="0.92.4 (5da689c313, 2019-01-14)"
   sodipodi:docname="City.svg"
   inkscape:export-filename="D:\Win10\Desktop\Tesis\Code\PandemicWeb\Assets\Resources\Images\CityYellow.png"
   inkscape:export-xdpi="96"
   inkscape:export-ydpi="96">
  <defs
     id="defs2" />
  <sodipodi:namedview
     id="base"
     pagecolor="#ffffff"
     bordercolor="#666666"
     borderopacity="1.0"
     inkscape:pageopacity="0.0"
     inkscape:pageshadow="2"
     inkscape:zoom="0.70000001"
     inkscape:cx="359.12376"
     inkscape:cy="638.83575"
     inkscape:document-units="mm"
     inkscape:current-layer="layer1"
     showgrid="false"
     inkscape:window-width="1920"
     inkscape:window-height="1017"
     inkscape:window-x="-8"
     inkscape:window-y="-8"
     inkscape:window-maximized="1" />
  <metadata
     id="metadata5">
    <rdf:RDF>
      <cc:Work
         rdf:about="">
        <dc:format>image/svg+xml</dc:format>
        <dc:type
           rdf:resource="http://purl.org/dc/dcmitype/StillImage" />
        <dc:title />
      </cc:Work>
    </rdf:RDF>
  </metadata>
  <g
     inkscape:label="Layer 1"
     inkscape:groupmode="layer"
     id="layer1">
    <circle
       style="opacity:1;fill:#ffcc00;fill-opacity:1;fill-rule:nonzero;stroke:#000000;stroke-width:2;stroke-linecap:round;stroke-linejoin:round;stroke-miterlimit:4;stroke-dasharray:none;stroke-opacity:1;paint-order:normal"
       id="path817"
       cx="112.78773"
       cy="144.38908"
       r="51.583019" />
  </g>
  <g
     inkscape:groupmode="layer"
     id="layer2"
     inkscape:label="Layer 2"
     style="display:inline"
     sodipodi:insensitive="true">
    <g
       transform="matrix(0.13760695,0,0,0.13760695,77.685543,109.07025)"
       id="g66">
      <g
         id="g64">
        <g
           id="g62">
          <path
             inkscape:connector-curvature="0"
             d="M 480.36,494.742 H 465.978 V 43.146 c 0,-4.767 -3.864,-8.629 -8.629,-8.629 H 296.27 c -4.766,0 -8.629,3.862 -8.629,8.629 V 80.539 H 270.383 V 43.146 c 0,-4.767 -3.864,-8.629 -8.629,-8.629 H 224.36 V 8.629 C 224.36,3.862 220.496,0 215.731,0 c -4.765,0 -8.629,3.862 -8.629,8.629 v 25.888 h -37.393 c -4.766,0 -8.629,3.862 -8.629,8.629 v 37.393 h -25.888 c -4.766,0 -8.629,3.862 -8.629,8.629 v 71.91 h -71.91 c -4.766,0 -8.629,3.862 -8.629,8.629 V 494.741 H 31.64 c -4.766,0 -8.629,3.862 -8.629,8.629 0,4.767 3.864,8.63 8.629,8.63 h 448.72 c 4.766,0 8.629,-3.862 8.629,-8.629 0,-4.767 -3.864,-8.629 -8.629,-8.629 z M 178.337,51.775 h 74.786 V 80.539 H 178.337 Z M 149.573,494.742 H 143.82 V 480.36 c 0,-4.767 -3.864,-8.629 -8.629,-8.629 -4.765,0 -8.629,3.862 -8.629,8.629 v 14.382 h -5.753 v -28.764 h 28.764 z m 57.528,-221.484 v 14.845 206.639 h -40.27 v -37.393 c 0,-4.767 -3.864,-8.629 -8.629,-8.629 H 112.18 c -4.766,0 -8.629,3.862 -8.629,8.629 v 37.393 H 63.281 V 178.337 h 143.82 z M 215.73,161.079 H 143.82 V 97.798 h 143.82 v 166.831 h -63.28 v -28.764 h 25.888 c 4.766,0 8.629,-3.862 8.629,-8.629 0,-4.767 -3.864,-8.629 -8.629,-8.629 H 224.36 v -28.764 h 25.888 c 4.766,0 8.629,-3.862 8.629,-8.629 0,-4.767 -3.864,-8.629 -8.629,-8.629 H 224.36 v -2.876 c 0,-4.768 -3.864,-8.63 -8.63,-8.63 z M 368.18,494.742 H 224.36 v -206.639 -6.215 h 143.82 z m 80.539,0 H 385.438 V 273.258 261.752 c 0,-4.767 -3.864,-8.629 -8.629,-8.629 -4.765,0 -8.629,3.862 -8.629,8.629 v 2.876 h -17.258 v -2.876 c 0,-4.767 -3.864,-8.629 -8.629,-8.629 -4.765,0 -8.629,3.862 -8.629,8.629 v 2.876 H 304.9 V 89.169 51.775 h 143.82 v 442.967 z"
             id="path2" />
          <path
             inkscape:connector-curvature="0"
             d="m 261.753,477.485 c 4.766,0 8.629,-3.864 8.629,-8.629 V 307.778 c 0,-4.767 -3.864,-8.629 -8.629,-8.629 -4.765,0 -8.629,3.862 -8.629,8.629 v 161.079 c 0,4.765 3.863,8.628 8.629,8.628 z"
             id="path4" />
          <path
             inkscape:connector-curvature="0"
             d="m 296.27,477.485 c 4.766,0 8.629,-3.864 8.629,-8.629 V 307.778 c 0,-4.767 -3.864,-8.629 -8.629,-8.629 -4.765,0 -8.629,3.862 -8.629,8.629 v 161.079 c -0.001,4.765 3.863,8.628 8.629,8.628 z"
             id="path6" />
          <path
             inkscape:connector-curvature="0"
             d="m 330.786,477.485 c 4.766,0 8.629,-3.864 8.629,-8.629 V 307.778 c 0,-4.767 -3.864,-8.629 -8.629,-8.629 -4.765,0 -8.629,3.862 -8.629,8.629 v 161.079 c 0,4.765 3.864,8.628 8.629,8.628 z"
             id="path8" />
          <path
             inkscape:connector-curvature="0"
             d="m 342.292,109.303 c 4.766,0 8.629,-3.862 8.629,-8.629 V 89.169 c 0,-4.767 -3.864,-8.629 -8.629,-8.629 -4.765,0 -8.629,3.862 -8.629,8.629 v 11.506 c 0,4.766 3.863,8.628 8.629,8.628 z"
             id="path10" />
          <path
             inkscape:connector-curvature="0"
             d="m 376.809,109.303 c 4.766,0 8.629,-3.862 8.629,-8.629 V 89.169 c 0,-4.767 -3.864,-8.629 -8.629,-8.629 -4.765,0 -8.629,3.862 -8.629,8.629 v 11.506 c 0,4.766 3.863,8.628 8.629,8.628 z"
             id="path12" />
          <path
             inkscape:connector-curvature="0"
             d="m 411.326,109.303 c 4.766,0 8.629,-3.862 8.629,-8.629 V 89.169 c 0,-4.767 -3.864,-8.629 -8.629,-8.629 -4.765,0 -8.629,3.862 -8.629,8.629 v 11.506 c 0,4.766 3.863,8.628 8.629,8.628 z"
             id="path14" />
          <path
             inkscape:connector-curvature="0"
             d="m 342.292,166.831 c 4.766,0 8.629,-3.862 8.629,-8.629 v -11.506 c 0,-4.767 -3.864,-8.629 -8.629,-8.629 -4.765,0 -8.629,3.862 -8.629,8.629 v 11.506 c 0,4.767 3.863,8.629 8.629,8.629 z"
             id="path16" />
          <path
             inkscape:connector-curvature="0"
             d="m 376.809,166.831 c 4.766,0 8.629,-3.862 8.629,-8.629 v -11.506 c 0,-4.767 -3.864,-8.629 -8.629,-8.629 -4.765,0 -8.629,3.862 -8.629,8.629 v 11.506 c 0,4.767 3.863,8.629 8.629,8.629 z"
             id="path18" />
          <path
             inkscape:connector-curvature="0"
             d="m 411.326,166.831 c 4.766,0 8.629,-3.862 8.629,-8.629 v -11.506 c 0,-4.767 -3.864,-8.629 -8.629,-8.629 -4.765,0 -8.629,3.862 -8.629,8.629 v 11.506 c 0,4.767 3.863,8.629 8.629,8.629 z"
             id="path20" />
          <path
             inkscape:connector-curvature="0"
             d="m 342.292,224.36 c 4.766,0 8.629,-3.862 8.629,-8.629 v -11.506 c 0,-4.767 -3.864,-8.629 -8.629,-8.629 -4.765,0 -8.629,3.862 -8.629,8.629 v 11.506 c 0,4.766 3.863,8.629 8.629,8.629 z"
             id="path22" />
          <path
             inkscape:connector-curvature="0"
             d="m 376.809,224.36 c 4.766,0 8.629,-3.862 8.629,-8.629 v -11.506 c 0,-4.767 -3.864,-8.629 -8.629,-8.629 -4.765,0 -8.629,3.862 -8.629,8.629 v 11.506 c 0,4.766 3.863,8.629 8.629,8.629 z"
             id="path24" />
          <path
             inkscape:connector-curvature="0"
             d="m 411.326,224.36 c 4.766,0 8.629,-3.862 8.629,-8.629 v -11.506 c 0,-4.767 -3.864,-8.629 -8.629,-8.629 -4.765,0 -8.629,3.862 -8.629,8.629 v 11.506 c 0,4.766 3.863,8.629 8.629,8.629 z"
             id="path26" />
          <path
             inkscape:connector-curvature="0"
             d="m 100.674,247.371 c 4.766,0 8.629,-3.862 8.629,-8.629 v -11.506 c 0,-4.767 -3.864,-8.629 -8.629,-8.629 -4.765,0 -8.629,3.862 -8.629,8.629 v 11.506 c 0,4.766 3.864,8.629 8.629,8.629 z"
             id="path28" />
          <path
             inkscape:connector-curvature="0"
             d="m 135.191,247.371 c 4.766,0 8.629,-3.862 8.629,-8.629 v -11.506 c 0,-4.767 -3.864,-8.629 -8.629,-8.629 -4.765,0 -8.629,3.862 -8.629,8.629 v 11.506 c 0,4.766 3.863,8.629 8.629,8.629 z"
             id="path30" />
          <path
             inkscape:connector-curvature="0"
             d="m 169.708,247.371 c 4.766,0 8.629,-3.862 8.629,-8.629 v -11.506 c 0,-4.767 -3.864,-8.629 -8.629,-8.629 -4.765,0 -8.629,3.862 -8.629,8.629 v 11.506 c 0,4.766 3.863,8.629 8.629,8.629 z"
             id="path32" />
          <path
             inkscape:connector-curvature="0"
             d="m 100.674,304.899 c 4.766,0 8.629,-3.862 8.629,-8.629 v -11.506 c 0,-4.767 -3.864,-8.629 -8.629,-8.629 -4.765,0 -8.629,3.862 -8.629,8.629 v 11.506 c 0,4.766 3.864,8.629 8.629,8.629 z"
             id="path34" />
          <path
             inkscape:connector-curvature="0"
             d="m 135.191,304.899 c 4.766,0 8.629,-3.862 8.629,-8.629 v -11.506 c 0,-4.767 -3.864,-8.629 -8.629,-8.629 -4.765,0 -8.629,3.862 -8.629,8.629 v 11.506 c 0,4.766 3.863,8.629 8.629,8.629 z"
             id="path36" />
          <path
             inkscape:connector-curvature="0"
             d="m 169.708,304.899 c 4.766,0 8.629,-3.862 8.629,-8.629 v -11.506 c 0,-4.767 -3.864,-8.629 -8.629,-8.629 -4.765,0 -8.629,3.862 -8.629,8.629 v 11.506 c 0,4.766 3.863,8.629 8.629,8.629 z"
             id="path38" />
          <path
             inkscape:connector-curvature="0"
             d="m 100.674,362.427 c 4.766,0 8.629,-3.862 8.629,-8.629 v -11.506 c 0,-4.767 -3.864,-8.629 -8.629,-8.629 -4.765,0 -8.629,3.862 -8.629,8.629 v 11.506 c 0,4.767 3.864,8.629 8.629,8.629 z"
             id="path40" />
          <path
             inkscape:connector-curvature="0"
             d="m 135.191,362.427 c 4.766,0 8.629,-3.862 8.629,-8.629 v -11.506 c 0,-4.767 -3.864,-8.629 -8.629,-8.629 -4.765,0 -8.629,3.862 -8.629,8.629 v 11.506 c 0,4.767 3.863,8.629 8.629,8.629 z"
             id="path42" />
          <path
             inkscape:connector-curvature="0"
             d="m 169.708,362.427 c 4.766,0 8.629,-3.862 8.629,-8.629 v -11.506 c 0,-4.767 -3.864,-8.629 -8.629,-8.629 -4.765,0 -8.629,3.862 -8.629,8.629 v 11.506 c 0,4.767 3.863,8.629 8.629,8.629 z"
             id="path44" />
          <path
             inkscape:connector-curvature="0"
             d="m 100.674,419.955 c 4.766,0 8.629,-3.862 8.629,-8.629 V 399.82 c 0,-4.767 -3.864,-8.629 -8.629,-8.629 -4.765,0 -8.629,3.862 -8.629,8.629 v 11.506 c 0,4.767 3.864,8.629 8.629,8.629 z"
             id="path46" />
          <path
             inkscape:connector-curvature="0"
             d="m 135.191,419.955 c 4.766,0 8.629,-3.862 8.629,-8.629 V 399.82 c 0,-4.767 -3.864,-8.629 -8.629,-8.629 -4.765,0 -8.629,3.862 -8.629,8.629 v 11.506 c 0,4.767 3.863,8.629 8.629,8.629 z"
             id="path48" />
          <path
             inkscape:connector-curvature="0"
             d="m 169.708,419.955 c 4.766,0 8.629,-3.862 8.629,-8.629 V 399.82 c 0,-4.767 -3.864,-8.629 -8.629,-8.629 -4.765,0 -8.629,3.862 -8.629,8.629 v 11.506 c 0,4.767 3.863,8.629 8.629,8.629 z"
             id="path50" />
          <path
             inkscape:connector-curvature="0"
             d="m 411.326,281.888 c 4.766,0 8.629,-3.862 8.629,-8.629 v -11.506 c 0,-4.767 -3.864,-8.629 -8.629,-8.629 -4.765,0 -8.629,3.862 -8.629,8.629 v 11.506 c 0,4.766 3.863,8.629 8.629,8.629 z"
             id="path52" />
          <path
             inkscape:connector-curvature="0"
             d="m 411.326,339.416 c 4.766,0 8.629,-3.862 8.629,-8.629 v -11.506 c 0,-4.767 -3.864,-8.629 -8.629,-8.629 -4.765,0 -8.629,3.862 -8.629,8.629 v 11.506 c 0,4.766 3.863,8.629 8.629,8.629 z"
             id="path54" />
          <path
             inkscape:connector-curvature="0"
             d="m 411.326,396.944 c 4.766,0 8.629,-3.862 8.629,-8.629 v -11.506 c 0,-4.767 -3.864,-8.629 -8.629,-8.629 -4.765,0 -8.629,3.862 -8.629,8.629 v 11.506 c 0,4.766 3.863,8.629 8.629,8.629 z"
             id="path56" />
          <path
             inkscape:connector-curvature="0"
             d="m 411.326,454.472 c 4.766,0 8.629,-3.862 8.629,-8.629 v -11.506 c 0,-4.767 -3.864,-8.629 -8.629,-8.629 -4.765,0 -8.629,3.862 -8.629,8.629 v 11.506 c 0,4.766 3.863,8.629 8.629,8.629 z"
             id="path58" />
          <path
             inkscape:connector-curvature="0"
             d="m 258.876,135.191 c 0,-4.767 -3.864,-8.629 -8.629,-8.629 h -69.034 c -4.766,0 -8.629,3.862 -8.629,8.629 0,4.767 3.864,8.629 8.629,8.629 h 69.034 c 4.766,0 8.629,-3.862 8.629,-8.629 z"
             id="path60" />
        </g>
      </g>
    </g>
  </g>
</svg>
