<svg height="512" viewBox="0 0 60 60" width="512" xmlns="http://www.w3.org/2000/svg"><g id="Page-1" fill="none" fill-rule="evenodd"><g id="037---Pirate-Grave" fill-rule="nonzero" transform="translate(0 -1)"><path id="Shape" d="m48 20v30.33c-.6270624-.2179219-1.2861499-.3294598-1.95-.33-.5514218-.0000247-1.1001144.0773982-1.63.23-.3422272.0920519-.7073416-.0117174-.95-.27-1.138591-1.2485439-2.7502511-1.9599975-4.44-1.96-.7309243.000888-1.4557534.132983-2.14.39-.346307.1235427-.7326435.042412-1-.21-3.3887757-2.9066259-8.3912243-2.9066259-11.78 0-.2673565.252412-.653693.3335427-1 .21-.6842466-.257017-1.4090757-.389112-2.14-.39-1.6897489.0000025-3.301409.7114561-4.44 1.96-.2426584.2582826-.6077728.3620519-.95.27-.5298856-.1526018-1.0785782-.2300247-1.63-.23-.6638501.0005402-1.3229376.1120781-1.95.33v-30.33c0-9.9411255 8.0588745-18 18-18s18 8.0588745 18 18z" fill="#7f8d93"/><path id="Shape" d="m42.73 7.27c-3.3754451-3.37698737-7.95531-5.27297232-12.73-5.27-.507 0-1 .035-1.5.076 9.3298271.76336088 16.5098129 8.5630013 16.5 17.924v30.106c.3460629-.0670913.6975103-.1025708 1.05-.106.6638501.0005402 1.3229376.1120781 1.9500035.33l-.0000035-30.33c.0029723-4.77469-1.8930126-9.3545549-5.27-12.73z" fill="#545c60"/><path id="Shape" d="m57.99 60h-55.98c-.2927923.0038536-.57227009-.1221058-.7633096-.3440204-.19103952-.2219146-.27403982-.5170156-.2266904-.8059796.55957257-2.8202344 3.03478844-4.851503 5.91-4.85.43704156.0009906.8727686.047915 1.3.14.82036812-2.4647271 3.1223473-4.1308449 5.72-4.14.5514218-.0000247 1.1001144.0773982 1.63.23.3422272.0920519.7073416-.0117174.95-.27 1.138591-1.2485439 2.7502511-1.9599975 4.44-1.96.7309243.000888 1.4557534.132983 2.14.39.346307.1235427.7326435.042412 1-.21 3.3887757-2.9066259 8.3912243-2.9066259 11.78 0 .2673565.252412.653693.3335427 1 .21.6842466-.257017 1.4090757-.389112 2.14-.39 1.6897489.0000025 3.301409.7114561 4.44 1.96.2426584.2582826.6077728.3620519.95.27.5298856-.1526018 1.0785782-.2300247 1.63-.23 2.5976527.0091551 4.8996319 1.6752729 5.72 4.14.4272314-.092085.8629584-.1390094 1.3-.14 2.8752116-.001503 5.3504274 2.0297656 5.91 4.85.0473494.288964-.0356509.584065-.2266904.8059796s-.4705173.347874-.7633096.3440204z" fill="#90562d"/><path id="Shape" d="m40.47 49.96c.2426584.2582826.6077728.3620519.95.27.5298856-.1526018 1.0785782-.2300247 1.63-.23.18 0 .35.029.524.045-.0355017-.0256787-.0689373-.054099-.1-.085-1.4790352-1.6584662-3.7686775-2.3380404-5.913-1.755 1.1177198.294362 2.1274002.9035023 2.909 1.755z" fill="#6d4122"/><path id="Shape" d="m58.98 58.85c-.5595726-2.8202344-3.0347884-4.851503-5.91-4.85-.4370416.0009906-.8727686.047915-1.3.14-.9786714-3.0341769-4.1674292-4.7652168-7.245-3.933.158.041.322.07.475.123 1.7889715.6015457 3.1873683 2.0147795 3.77 3.81.4272314-.092085.8629584-.1390094 1.3-.14 2.8752116-.001503 5.3504274 2.0297656 5.91 4.85.0473494.288964-.0356509.584065-.2266904.8059796s-.4705173.347874-.7633096.3440204h3c.2927923.0038536.5722701-.1221058.7633096-.3440204s.2740398-.5170156.2266904-.8059796z" fill="#6d4122"/><path id="Shape" d="m32.89 48.18c.2673565.252412.653693.3335427 1 .21.5817305-.2105762 1.1919662-.3319491 1.81-.36-1.6083312-1.3150149-3.6225044-2.0323433-5.7-2.03-.5026959.001695-1.004396.0448412-1.5.129 1.6234997.2688919 3.1420188.9783412 4.39 2.051z" fill="#6d4122"/><path id="Shape" d="m33 37.95v1.05c0 .5522847-.4477153 1-1 1h-4c-.5522847 0-1-.4477153-1-1v-1.05c-1.0643874.2099098-2.142679-.2906262-2.6693538-1.2390968s-.381513-2.1283761.3593538-2.9209032c-1.328129-2.5245208-.6952128-5.6351215 1.5138092-7.4399356 2.2090219-1.804814 5.3833597-1.804814 7.5923816 0 2.209022 1.8048141 2.8419382 4.9154148 1.5138092 7.4399356.7528546.7892108.9049938 1.9763073.3754938 2.9298656-.5294999.9535583-1.617584 1.4519731-2.6854938 1.2301344z" fill="#f4f4f4"/><path id="Shape" d="m35.31 33.79c1.0972452-2.1000707.8558201-4.6491936-.616171-6.5059342-1.4719912-1.8567407-3.8988265-2.673309-6.193829-2.0840658 1.7724547.4591539 3.2382518 1.7024923 3.9803932 3.3763036.7421413 1.6738112.6793933 3.5948824-.1703932 5.2166964.7501017.789591.9005704 1.9748189.3715666 2.9267966-.5290037.9519777-1.6149239 1.4501577-2.6815666 1.2302034v1.05c0 .5522847-.4477153 1-1 1h3c.5522847 0 1-.4477153 1-1v-1.05c1.0643874.2099098 2.142679-.2906262 2.6693538-1.2390968s.381513-2.1283761-.3593538-2.9209032z" fill="#ced7db"/><path id="Shape" d="m25.54 27c-.9367498 1.0222006-1.479112 2.3444298-1.53 3.73l-3.6-1.98c-.8288039.9837153-2.2688035 1.1779589-3.3286318.4490037-1.0598284-.7289551-1.39353-2.1431589-.7713682-3.2690037.2561797-.4799563.6691253-.8576074 1.17-1.07-.0841323-.5355436.0107728-1.083884.27-1.56.6177989-1.1233166 1.9851808-1.5972643 3.1656443-1.0972427 1.1804635.5000217 1.7913863 1.8119413 1.4143557 3.0372427z" fill="#ced7db"/><path id="Shape" d="m42.7 29.32c-1.0404472.5729042-2.3403598.3346566-3.11-.57l-3.6 1.98c-.050888-1.3855702-.5932502-2.7077994-1.53-3.73l3.21-1.76c-.3770306-1.2253014.2338922-2.537221 1.4143557-3.0372427 1.1804635-.5000216 2.5478454-.0260739 3.1656443 1.0972427.2592272.476116.3541323 1.0244564.27 1.56.5008747.2123926.9138203.5900437 1.17 1.07.3202301.5804151.395803 1.2645625.2099763 1.900878-.1858266.6363156-.6177116 1.1722674-1.1999763 1.489122z" fill="#ced7db"/><path id="Shape" d="m22.33 40.42c.3770306 1.2253014-.2338922 2.537221-1.4143557 3.0372427-1.1804635.5000216-2.5478454.0260739-3.1656443-1.0972427-.2592272-.476116-.3541323-1.0244564-.27-1.56-.498831-.2155627-.910845-.5923618-1.17-1.07-.6221618-1.1258448-.2884602-2.5400486.7713682-3.2690037 1.0598283-.7289552 2.4998279-.5347116 3.3286318.4490037l3.66-2.01c-.0490593.1961537-.0725871.3978208-.07.6 0 1.3807119 1.1192881 2.5 2.5 2.5.09 0 .18-.01.27-.01z" fill="#ced7db"/><path id="Shape" d="m43.69 39.73c-.259155.4776382-.671169.8544373-1.17 1.07.0841323.5355436-.0107728 1.083884-.27 1.56-.6177989 1.1233166-1.9851808 1.5972643-3.1656443 1.0972427-1.1804635-.5000217-1.7913863-1.8119413-1.4143557-3.0372427l-4.44-2.43c.09 0 .18.01.27.01.6630412 0 1.298926-.2633921 1.767767-.732233.4688409-.468841.732233-1.1047258.732233-1.767767.0025871-.2021792-.0209407-.4038463-.07-.6l3.66 2.01c.8288039-.9837153 2.2688035-1.1779589 3.3286318-.4490037 1.0598284.7289551 1.39353 2.1431589.7713682 3.2690037z" fill="#ced7db"/><g fill="#000"><path id="Shape" d="m43.437 6.562c-5.4341592-5.43575468-13.6080343-7.06202224-20.7089811-4.12024209s-11.7300186 9.87205239-11.7280189 17.55824209v29.646c-1.50083102.6903986-2.70833807 1.890465-3.408 3.387-3.59191682-.3536615-6.86388639 2.0816954-7.556 5.624-.10971087.5698551.04185715 1.1588786.413 1.605.38394677.4679675.95768356.7388682 1.563.738h55.976c.6053164.0008682 1.1790532-.2700325 1.563-.738.3711428-.4461214.5227109-1.0351449.413-1.605-.6921136-3.5423046-3.9640832-5.9776615-7.556-5.624-.6996619-1.496535-1.907169-2.6966014-3.408-3.387v-29.646c.0107011-5.0417209-1.9918455-9.8790788-5.563-13.438zm-30.437 13.438c0-9.3888407 7.6111593-17 17-17s17 7.6111593 17 17v29.068c-.3141186-.0438903-.630833-.0666082-.948-.068-.626896-.0069311-1.2507339.0883165-1.847.282-1.3300465-1.4513703-3.2073734-2.279048-5.176-2.282-.8455928.0048007-1.6846939.1480289-2.484.424-1.8218085-1.5643222-4.1437315-2.4242674-6.545-2.424-2.4064164-.005465-4.7316397.8699173-6.537 2.461-2.6665139-1.0010467-5.6736336-.2896765-7.609 1.8-.6201913-.1747962-1.2616489-.2626349-1.906-.261-.317167.0013918-.6338814.0241097-.948.068zm37.409 33.542c-.7665565.3110844-1.4728483.7537436-2.087 1.308-.2665864.2412462-.3831444.6070343-.3052784.9580399.077866.3510057.3381686.6331922.6817617.7390781.3435932.1058859.7175813.0191702.9795167-.227118.6589471-.5792319 1.4479485-.9908848 2.3-1.2h.006.009c1.3121395-.2947835 2.6876857-.0514116 3.8190256.6756904 1.13134.727102 1.9240924 1.8772762 2.2009744 3.1933096-.0051905.0057054-.0123214.0092708-.02.01l-55.993.041c.467317-2.3497591 2.53022239-4.0416263 4.926-4.04.36528871.0013242.729378.0418903 1.086.121h.009.006c.85205147.2091152 1.64105287.6207681 2.3 1.2.4067419.3680793 1.034079.339775 1.4060217-.0634372.3719426-.4032121.349624-1.0307907-.0500217-1.4065628-.6141517-.5542564-1.3204435-.9969156-2.087-1.308 1.1347391-2.0097222 3.497603-2.9816452 5.718-2.352.7063964.1960897 1.4631537-.0188587 1.961-.557 1.3972719-1.4989459 3.5583274-2.011605 5.48-1.3.6898514.2485411 1.4604007.0996501 2.008-.388 3.0152092-2.5878327 7.4677908-2.5878327 10.483 0 .5478111.4880283 1.3188573.6369411 2.009.388 1.9217746-.7099266 4.0818831-.1974921 5.48 1.3.4975403.5393267 1.2552937.7544483 1.962.557 2.2200873-.6291276 4.5823641.3427239 5.717 2.352z"/><path id="Shape" d="m32.4 51.8c.2858125.2143594.6642735.2599565.9928203.1196153.3285469-.1403412.5572657-.4452995.6000001-.8.0427344-.3547006-.1070079-.705256-.3928204-.9196153-2.1430373-1.5706183-5.0569627-1.5706183-7.2 0-.4418278.3313708-.5313708.9581722-.2 1.4s.9581722.5313708 1.4.2c1.4289006-1.0464398 3.3710994-1.0464398 4.8 0z"/><path id="Shape" d="m17.33 53.257c-.2654483.2393679-.3830314.602168-.3084569.951737.0745746.349569.3299771.632799.67.743s.7130086.0306309.9784569-.208737c1.0270491-.9713314 2.6339509-.9713314 3.661 0 .2630022.2535165.6433129.3434531.9920107.2345927.3486978-.1088605.6102913-.3991942.6823463-.7573127.0720549-.3581184-.0568955-.7270312-.336357-.96228-1.7925594-1.6453271-4.5459216-1.6457615-6.339-.001z"/><path id="Shape" d="m36.33 53.257c-.4103475.3700308-.4430307 1.0026524-.073 1.413.3700308.4103475 1.0026524.4430307 1.413.073 1.0270491-.9713314 2.6339509-.9713314 3.661 0 .2630022.2535165.6433129.3434531.9920107.2345927.3486978-.1088605.6102913-.3991942.6823463-.7573127.0720549-.3581184-.0568955-.7270312-.336357-.96228-1.7925594-1.6453271-4.5459216-1.6457615-6.339-.001z"/><path id="Shape" d="m27.33 55.257c-.4103476.3700308-.4430308 1.0026524-.073 1.413s1.0026524.4430308 1.413.073c1.0270491-.9713314 2.6339509-.9713314 3.661 0 .2630022.2535165.6433129.3434531.9920107.2345927.3486978-.1088605.6102913-.3991942.6823463-.7573127.0720549-.3581184-.0568955-.7270312-.336357-.96228-1.7925594-1.6453271-4.5459216-1.6457615-6.339-.001z"/><path id="Shape" d="m23.257 34.206-2.7 1.484c-.9248113-.6643985-2.1144623-.8388691-3.1911031-.4679974-1.0766409.3708717-1.9064606 1.2409915-2.2258969 2.3339974-.2616919.8867744-.1564941 1.84148.292 2.65.248082.4588532.5988816.8541444 1.025 1.155.0254681 1.2822084.7501571 2.4478078 1.8887778 3.0379349 1.1386206.5901272 2.5088098.5102665 3.5711632-.2081431 1.0623533-.7184096 1.6467229-1.9603067 1.523059-3.2367918l2.636-1.443c.2310117.8741878 1.0198143 1.4846489 1.924 1.489h4c.9049305-.0034487 1.6947951-.6140969 1.926-1.489l2.636 1.443c-.0968138 1.6362543.9549101 3.1205355 2.5307418 3.5715957s3.2536326-.2519319 4.0372582-1.6915957c.2465441-.4538697.3883455-.9571791.415-1.473.4239694-.2984845.7730834-.6910666 1.02-1.147.4482187-.8120806.554826-1.769153.2962899-2.6599582-.2585362-.8908052-.8609579-1.6420979-1.6742899-2.0880418-1.1855467-.655917-2.6431668-.5686623-3.742.224l-2.7-1.484c-.0739945-.1894861-.1643351-.372175-.27-.546.3025448-.7434043.4753823-1.5331804.511-2.335l2.462-1.355c1.0974509.7861407 2.5480333.8747377 3.733.228.8146941-.4435194 1.4193082-1.1931212 1.6803031-2.0832434.260995-.8901223.1568967-1.8475274-.2893031-2.6607566-.2474899-.461223-.5987169-.858664-1.026-1.161-.0197746-1.2869208-.7442755-2.4591555-1.8865036-3.0523428s-2.5178662-.5116067-3.5819782.212425-1.6449859 1.9736801-1.5125182 3.2539178l-1.931 1.059c-2.6392012-2.3544771-6.6247988-2.3544771-9.264 0l-1.93-1.059c.1228198-1.2752539-.4609344-2.5157069-1.521862-3.2338921s-2.4294705-.7993218-3.5678256-.2115251-1.8645899 1.7505845-1.8933124 3.0314172c-.4243795.3005167-.7734814.6951388-1.02 1.153-.4502845.8131355-.5574998 1.7723308-.2978636 2.6648186.2596363.8924879.8646592 1.6444838 1.6808636 2.0891814 1.1851415.6469617 2.6359577.5587627 3.734-.227l2.462 1.355c.0356177.8018196.2084552 1.5915957.511 2.335-.1055096.1728646-.1958472.3545436-.27.543zm-1.407 5.336c-.4190143.2291108-.6175529.7225251-.474 1.178.2127942.6761478-.079869 1.4086419-.7 1.752-.7266725.3955613-1.6363185.1340715-2.042-.587-.1561083-.2843794-.2127722-.6127484-.161-.933.0686866-.4448518-.1683053-.8807696-.579-1.065-.3017678-.1261623-.5507746-.3525642-.705-.641-.1927467-.3449629-.238175-.753097-.126-1.132.1551121-.5298038.5876633-.9322791 1.1272534-1.048874.53959-.1165948 1.099726.0713803 1.4597466.489874.3070456.3642622.8284279.4613414 1.246.232l2.278-1.252c.2008737.6550785.589608 1.2367891 1.118 1.673zm18.5-1.987c.3600206-.4184937.9201566-.6064688 1.4597466-.489874.5395901.1165949.9721413.5190702 1.1272534 1.048874.112415.3819615.0655245.7931545-.13 1.14-.1541483.2847875-.4011911.5081848-.7.633-.4106947.1842304-.6476866.6201482-.579 1.065.0518565.3164534-.0030246.6411661-.156.923-.4019968.7266982-1.3141015.9943084-2.045.6-.6225776-.341812-.9179047-1.0751101-.706-1.753.1435529-.4554749-.0549857-.9488892-.474-1.178l-2.438-1.334c.528392-.4362109.9171263-1.0179215 1.118-1.673l2.278 1.252c.418749.2305496.9421078.1324984 1.249-.234zm-2.2-11.438c.4185482-.2290223.6170101-.7218276.474-1.177-.1605913-.5258814-.0205804-1.0974792.3648744-1.4896086.3854548-.3921293.9545649-.5419317 1.4831256-.3903914.3824058.1100269.7058743.3666453.9.714.1561842.2847158.212846.6134246.161.934-.069182.4509271.1755884.8915138.595 1.071.2967658.1252286.5404681.3501846.689.636.1910043.3473646.2357134.756523.1242345 1.1369402s-.3699549.7007291-.7182345.8900598c-.6233669.3454637-1.4037515.2046016-1.867-.337-.3074429-.3644362-.8294171-.461129-1.247-.231l-2.358 1.3c-.1761478-.6507285-.4456114-1.2725156-.8-1.846zm-8.15-.117c2.7600532.0033061 4.9966939 2.2399468 5 5 .0015611.808991-.1955426 1.6059904-.574 2.321-.1986809.3785122-.1347847.8414583.159 1.152.4484142.4751612.5376967 1.1859132.2207365 1.7572184-.3169601.5713053-.9672503.8717423-1.6077365.7427816-.2944266-.0600998-.6002719.0153882-.8329223.2055798-.2326503.1901916-.3674396.4749224-.3670777.7754202v1.046h-3.998v-1.05c0-.5522847-.4477153-1-1-1-.0671268-.0002054-.1341127.0061583-.2.019-.6431702.138153-1.301021-.1606461-1.6201644-.7358866-.3191435-.5752405-.2244695-1.2915402.2331644-1.7641134.2937847-.3105417.3576809-.7734878.159-1.152-.3771274-.713992-.5735228-1.5095303-.572-2.317.0033061-2.7600532 2.2399468-4.9966939 5-5zm-10.354 2.105c-.4633799.5421173-1.2443945.6830176-1.868.337-.3494405-.1905786-.6082448-.5128836-.7188568-.8952367-.1106119-.382353-.0638606-.793053.1298568-1.1407633.1490456-.2818563.3910911-.5034074.685-.627.4213802-.1777904.6684436-.6187985.6-1.071-.0519306-.3167774.0029484-.64183.156-.924.1924501-.3508571.5160597-.6111831.9-.724.5285607-.1515403 1.0976708-.0017379 1.4831256.3903914.3854548.3921294.5254657.9637272.3648744 1.4896086-.1430101.4551724.0554518.9479777.474 1.177l2.2 1.208c-.3543886.5734844-.6238522 1.1952715-.8 1.846l-2.358-1.3c-.4185096-.2299918-.9412353-.1319807-1.248.234z"/><circle id="Oval" cx="28" cy="31" r="1"/><circle id="Oval" cx="32" cy="31" r="1"/><path id="Shape" d="m28.293 35.707c.3904999.3903819 1.0235001.3903819 1.414 0l.293-.293.293.293c.3923789.3789722 1.0160848.3735524 1.4018186-.0121814s.3911536-1.0094397.0121814-1.4018186l-1-1c-.3904999-.3903819-1.0235001-.3903819-1.414 0l-1 1c-.3903819.3904999-.3903819 1.0235001 0 1.414z"/><path id="Shape" d="m21 19c.5522847 0 1-.4477153 1-1v-3h.382l1.723 3.447c.1596977.3197527.4778505.5300187.8346134.5515928.3567628.021574.6979349-.1488214.895-.4470001.1970651-.2981786.2200843-.67884.0603866-.9985927l-1.466-2.932c1.2079468-.6501053 1.8183112-2.0389922 1.4803221-3.3684791-.3379892-1.32948702-1.537557-2.25824344-2.9093221-2.2525209h-1c-1.1045695 0-2 .8954305-2 2v7c0 .5522847.4477153 1 1 1zm1-8h1c.5522847 0 1 .4477153 1 1s-.4477153 1-1 1h-1z"/><path id="Shape" d="m35 19c.5522847 0 1-.4477153 1-1v-3h1c1.6568542 0 2.9999999-1.3431458 2.9999999-3s-1.3431457-2.99999997-2.9999999-3h-1c-1.1045695 0-2 .8954305-2 2v7c0 .5522847.4477153 1 1 1zm1-8h1c.5522847 0 1 .4477153 1 1s-.4477153 1-1 1h-1z"/><path id="Shape" d="m30 19c.5522847 0 1-.4477153 1-1v-8c0-.55228475-.4477153-1-1-1s-1 .44771525-1 1v8c0 .5522847.4477153 1 1 1z"/></g></g></g></svg>