<svg height="512pt" viewBox="-70 0 512 512.001" width="512pt" xmlns="http://www.w3.org/2000/svg"><path d="m361.917969 469.5625-124.125-232.5c-2.449219-4.589844-3.730469-9.714844-3.730469-14.917969v-206.992187h-95.871094v206.992187c0 5.203125-1.28125 10.328125-3.730468 14.917969l-124.128907 232.5c-8.445312 15.824219 3.019531 34.941406 20.957031 34.941406h309.675782c17.9375 0 29.402344-19.117187 20.953125-34.941406zm0 0" fill="#d5f1fe"/><path d="m361.917969 469.5625-124.125-232.5c-2.453125-4.589844-3.730469-9.714844-3.730469-14.917969v-206.992187h-40.832031v209.808594c0 3.355468.828125 6.65625 2.40625 9.613281l125.453125 234.988281c8.449218 15.820312-3.015625 34.941406-20.953125 34.941406h40.828125c17.9375 0 29.402344-19.117187 20.953125-34.941406zm0 0" fill="#b4e7fd"/><path d="m124.410156 363.101562-45.011718 84.902344c-3.605469 6.796875 1.324218 14.984375 9.019531 14.984375h195.417969c7.695312 0 12.621093-8.1875 9.019531-14.984375l-44.863281-84.617187c-2.867188-5.410157-8.011719-9.246094-14.011719-10.453125l-6.609375-1.328125c-29.566406-5.941407-60.058594-5.546875-89.464844 1.15625-5.789062 1.320312-10.714844 5.09375-13.496094 10.339843zm0 0" fill="#9773bd"/><path d="m292.855469 448.003906-44.863281-84.617187c-2.867188-5.410157-8.011719-9.246094-14.011719-10.453125l-6.609375-1.328125c-20.59375-4.136719-41.636719-5.195313-62.449219-3.195313 7.242187.695313 14.457031 1.757813 21.617187 3.195313l6.613282 1.328125c6 1.207031 11.144531 5.042968 14.011718 10.453125l44.859376 84.617187c3.605468 6.796875-1.324219 14.984375-9.015626 14.984375h40.828126c7.695312 0 12.621093-8.1875 9.019531-14.984375zm0 0" fill="#865cb2"/><path d="m246.792969 424.226562c0 7.046876-5.710938 12.757813-12.757813 12.757813s-12.761718-5.710937-12.761718-12.757813c0-7.046874 5.714843-12.757812 12.761718-12.757812s12.757813 5.710938 12.757813 12.757812zm0 0" fill="#d5f1fe"/><path d="m234.035156 411.46875c-1.816406 0-3.542968.382812-5.105468 1.066406 4.503906 1.972656 7.65625 6.460938 7.65625 11.691406 0 5.230469-3.152344 9.71875-7.65625 11.6875 1.5625.6875 3.289062 1.070313 5.105468 1.070313 7.046875 0 12.757813-5.710937 12.757813-12.757813 0-7.046874-5.714844-12.757812-12.757813-12.757812zm0 0" fill="#b4e7fd"/><path d="m147.269531 430.910156c0 7.046875-5.710937 12.761719-12.757812 12.761719s-12.757813-5.714844-12.757813-12.761719c0-7.042968 5.710938-12.757812 12.757813-12.757812s12.757812 5.714844 12.757812 12.757812zm0 0" fill="#d5f1fe"/><path d="m134.511719 418.152344c-1.816407 0-3.539063.386718-5.105469 1.070312 4.507812 1.96875 7.65625 6.460938 7.65625 11.691406 0 5.230469-3.152344 9.71875-7.65625 11.6875 1.566406.683594 3.289062 1.070313 5.105469 1.070313 7.046875 0 12.757812-5.710937 12.757812-12.757813 0-7.046874-5.710937-12.761718-12.757812-12.761718zm0 0" fill="#b4e7fd"/><path d="m193.230469 390.699219c0 8.457031-6.855469 15.3125-15.308594 15.3125-8.457031 0-15.3125-6.855469-15.3125-15.3125s6.855469-15.308594 15.3125-15.308594c8.453125 0 15.308594 6.851563 15.308594 15.308594zm0 0" fill="#d5f1fe"/><path d="m193.230469 390.699219c0 8.457031-6.855469 15.3125-15.308594 15.3125-2.179687 0-4.25-.460938-6.125-1.28125 5.40625-2.363281 9.1875-7.753907 9.1875-14.03125 0-6.273438-3.78125-11.664063-9.1875-14.027344 1.875-.820313 3.945313-1.28125 6.125-1.28125 8.453125 0 15.308594 6.851563 15.308594 15.308594zm0 0" fill="#b4e7fd"/><path d="m174.347656 307.4375c0 8.453125-6.855468 15.308594-15.308594 15.308594-8.457031 0-15.3125-6.855469-15.3125-15.308594 0-8.457031 6.855469-15.3125 15.3125-15.3125 8.453126 0 15.308594 6.855469 15.308594 15.3125zm0 0" fill="#9773bd"/><path d="m159.039062 292.125c-2.382812 0-4.625.558594-6.636718 1.527344 5.128906 2.476562 8.675781 7.707031 8.675781 13.78125 0 6.078125-3.546875 11.308594-8.675781 13.785156 2.011718.96875 4.253906 1.527344 6.636718 1.527344 8.453126 0 15.308594-6.855469 15.308594-15.3125 0-8.453125-6.855468-15.308594-15.308594-15.308594zm0 0" fill="#865cb2"/><path d="m220.792969 267.066406c0 8.457032-6.855469 15.3125-15.3125 15.3125s-15.3125-6.855468-15.3125-15.3125c0-8.457031 6.855469-15.308594 15.3125-15.308594s15.3125 6.851563 15.3125 15.308594zm0 0" fill="#9773bd"/><path d="m205.480469 251.757812c-2.378907 0-4.625.558594-6.632813 1.527344 5.128906 2.472656 8.675782 7.707032 8.675782 13.78125 0 6.074219-3.550782 11.308594-8.675782 13.78125 2.007813.96875 4.253906 1.527344 6.632813 1.527344 8.457031 0 15.3125-6.855469 15.3125-15.308594-.003907-8.457031-6.855469-15.308594-15.3125-15.308594zm0 0" fill="#865cb2"/><path d="m193.742188 207.269531c0 7.046875-5.710938 12.757813-12.757813 12.757813s-12.761719-5.710938-12.761719-12.757813 5.714844-12.761719 12.761719-12.761719 12.757813 5.714844 12.757813 12.761719zm0 0" fill="#9773bd"/><path d="m180.984375 194.507812c-1.816406 0-3.542969.386719-5.105469 1.070313 4.503906 1.96875 7.65625 6.457031 7.65625 11.691406 0 5.230469-3.152344 9.71875-7.65625 11.6875 1.5625.683594 3.289063 1.070313 5.105469 1.070313 7.046875 0 12.757813-5.710938 12.757813-12.757813s-5.710938-12.761719-12.757813-12.761719zm0 0" fill="#865cb2"/><path d="m131.953125 7.496094h108.34375c5.441406 0 9.851563 4.410156 9.851563 9.851562v19.699219c0 5.4375-4.410157 9.847656-9.851563 9.847656h-108.34375c-5.4375 0-9.847656-4.410156-9.847656-9.847656v-19.699219c0-5.441406 4.410156-9.851562 9.847656-9.851562zm0 0" fill="#d5f1fe"/><path d="m240.296875 7.496094h-39.398437c5.441406 0 9.851562 4.410156 9.851562 9.851562v19.699219c0 5.4375-4.410156 9.847656-9.851562 9.847656h39.398437c5.441406 0 9.847656-4.410156 9.847656-9.847656v-19.699219c.003907-5.441406-4.40625-9.851562-9.847656-9.851562zm0 0" fill="#b4e7fd"/><path d="m368.53125 466.03125-124.125-232.503906c-1.863281-3.488282-2.847656-7.425782-2.847656-11.382813v-167.816406c8.976562-.652344 16.085937-8.144531 16.085937-17.285156v-19.695313c0-9.566406-7.785156-17.347656-17.347656-17.347656h-108.34375c-9.5625 0-17.34375 7.78125-17.34375 17.347656v19.699219c0 9.136719 7.109375 16.632813 16.085937 17.28125v167.816406c0 3.957031-.984374 7.894531-2.847656 11.386719l-41.308594 77.375c-.011718.015625-.019531.03125-.027343.046875l-43.570313 81.613281c-.007812.011719-.011718.023438-.019531.039063l-21.773437 40.777343c-.011719.023438-.023438.042969-.03125.066407l-17.394532 32.582031c-5.222656 9.777344-4.933594 21.285156.765625 30.789062 5.699219 9.503907 15.71875 15.179688 26.800781 15.179688h136.933594c4.140625 0 7.5-3.355469 7.5-7.496094s-3.359375-7.496094-7.5-7.496094h-136.933594c-5.765624 0-10.980468-2.953124-13.941406-7.898437-2.96875-4.945313-3.117187-10.929687-.402344-16.015625l15.277344-28.613281h20.714844c4.140625 0 7.496094-3.355469 7.496094-7.496094s-3.355469-7.5-7.496094-7.5h-12.710938l13.792969-25.835937h20.671875c4.140625 0 7.5-3.355469 7.5-7.496094s-3.359375-7.496094-7.5-7.496094h-12.667968l13.792968-25.835938h20.714844c4.140625 0 7.496094-3.355468 7.496094-7.496093s-3.355469-7.496094-7.496094-7.496094h-12.710938l13.792969-25.835937h20.679688c4.144531 0 7.5-3.355469 7.5-7.496094s-3.355469-7.5-7.5-7.5h-12.675781l35.453124-66.40625c3.019532-5.65625 4.617188-12.035156 4.617188-18.449219v-167.75h80.875v167.753906c0 6.414063 1.597656 12.792969 4.617188 18.445313l124.125 232.503906c2.714843 5.085938 2.566406 11.070312-.398438 16.015625s-8.175781 7.898437-13.941406 7.898437h-137.347656c-4.140626 0-7.496094 3.355469-7.496094 7.496094s3.355468 7.496094 7.496094 7.496094h137.347656c11.082031 0 21.101562-5.671875 26.800781-15.175781 5.699219-9.503907 5.984375-21.015625.765625-30.792969zm-238.929688-428.984375v-19.699219c0-1.296875 1.054688-2.355468 2.351563-2.355468h108.34375c1.296875 0 2.351563 1.054687 2.351563 2.355468v19.699219c0 1.296875-1.054688 2.351563-2.351563 2.351563h-108.34375c-1.296875 0-2.351563-1.054688-2.351563-2.351563zm0 0"/><path d="m117.785156 359.589844-45.011718 84.902344c-2.933594 5.535156-2.757813 12.046874.472656 17.417968 3.230468 5.371094 8.902344 8.574219 15.167968 8.574219h195.417969c6.269531 0 11.941407-3.207031 15.171875-8.574219 3.230469-5.371094 3.40625-11.882812.472656-17.417968l-44.863281-84.617188c-3.9375-7.429688-10.921875-12.636719-19.160156-14.289062l-6.609375-1.328126c-30.808594-6.195312-61.96875-5.792968-92.605469 1.195313-7.917969 1.804687-14.648437 6.957031-18.453125 14.136719zm21.789063.480468c28.558593-6.511718 57.597656-6.882812 86.320312-1.117187l6.609375 1.332031c3.8125.765625 7.042969 3.175782 8.867188 6.613282l44.859375 84.613281c.625 1.179687.222656 2.179687-.074219 2.667969-.292969.492187-.988281 1.3125-2.320312 1.3125h-195.417969c-1.335938 0-2.027344-.820313-2.324219-1.3125-.296875-.488282-.695312-1.488282-.070312-2.667969l45.007812-84.898438c1.761719-3.320312 4.875-5.707031 8.542969-6.542969zm0 0"/><path d="m234.03125 444.480469c11.171875 0 20.257812-9.085938 20.257812-20.253907 0-11.167968-9.085937-20.257812-20.257812-20.257812-11.167969 0-20.253906 9.089844-20.253906 20.257812 0 11.167969 9.085937 20.253907 20.253906 20.253907zm0-25.515625c2.902344 0 5.261719 2.359375 5.261719 5.261718 0 2.902344-2.359375 5.261719-5.261719 5.261719-2.898438 0-5.257812-2.359375-5.257812-5.261719 0-2.902343 2.359374-5.261718 5.257812-5.261718zm0 0"/><path d="m134.511719 451.167969c11.167969 0 20.257812-9.085938 20.257812-20.253907 0-11.171874-9.089843-20.257812-20.257812-20.257812s-20.257813 9.085938-20.257813 20.257812c0 11.167969 9.089844 20.253907 20.257813 20.253907zm0-25.519531c2.902343 0 5.261719 2.363281 5.261719 5.261718 0 2.902344-2.359376 5.265625-5.261719 5.265625-2.902344 0-5.261719-2.363281-5.261719-5.265625 0-2.898437 2.359375-5.261718 5.261719-5.261718zm0 0"/><path d="m177.921875 413.507812c12.578125 0 22.808594-10.230468 22.808594-22.808593s-10.230469-22.808594-22.808594-22.808594-22.808594 10.230469-22.808594 22.808594 10.230469 22.808593 22.808594 22.808593zm0-30.621093c4.308594 0 7.8125 3.503906 7.8125 7.8125 0 4.308593-3.503906 7.8125-7.8125 7.8125s-7.8125-3.503907-7.8125-7.8125c-.003906-4.308594 3.503906-7.8125 7.8125-7.8125zm0 0"/><path d="m136.230469 307.4375c0 12.574219 10.230469 22.804688 22.808593 22.804688 12.574219 0 22.808594-10.230469 22.808594-22.804688 0-12.578125-10.234375-22.808594-22.808594-22.808594-12.578124 0-22.808593 10.230469-22.808593 22.808594zm30.621093 0c0 4.308594-3.503906 7.8125-7.8125 7.8125-4.308593 0-7.816406-3.503906-7.816406-7.8125s3.507813-7.816406 7.816406-7.816406c4.308594 0 7.8125 3.507812 7.8125 7.816406zm0 0"/><path d="m182.671875 267.066406c0 12.578125 10.230469 22.808594 22.808594 22.808594s22.808593-10.230469 22.808593-22.808594c0-12.574218-10.230468-22.808594-22.808593-22.808594s-22.808594 10.234376-22.808594 22.808594zm22.808594-7.8125c4.308593 0 7.8125 3.503906 7.8125 7.8125s-3.503907 7.816406-7.8125 7.816406c-4.308594 0-7.8125-3.507812-7.8125-7.816406s3.503906-7.8125 7.8125-7.8125zm0 0"/><path d="m180.984375 187.011719c-11.167969 0-20.257813 9.085937-20.257813 20.253906 0 11.171875 9.089844 20.257813 20.257813 20.257813s20.253906-9.085938 20.253906-20.257813c0-11.167969-9.085937-20.253906-20.253906-20.253906zm0 25.519531c-2.902344 0-5.261719-2.363281-5.261719-5.261719 0-2.902343 2.359375-5.261719 5.261719-5.261719s5.261719 2.359376 5.261719 5.261719c0 2.898438-2.359375 5.261719-5.261719 5.261719zm0 0"/></svg>