<?xml version="1.0" encoding="UTF-8" standalone="no"?>
<!-- Generator: Adobe Illustrator 18.0.0, SVG Export Plug-In . SVG Version: 6.00 Build 0)  -->

<svg
   xmlns:dc="http://purl.org/dc/elements/1.1/"
   xmlns:cc="http://creativecommons.org/ns#"
   xmlns:rdf="http://www.w3.org/1999/02/22-rdf-syntax-ns#"
   xmlns:svg="http://www.w3.org/2000/svg"
   xmlns="http://www.w3.org/2000/svg"
   xmlns:sodipodi="http://sodipodi.sourceforge.net/DTD/sodipodi-0.dtd"
   xmlns:inkscape="http://www.inkscape.org/namespaces/inkscape"
   version="1.1"
   id="Capa_1"
   x="0px"
   y="0px"
   viewBox="0 0 210.662 210.662"
   style="enable-background:new 0 0 210.662 210.662;"
   xml:space="preserve"
   sodipodi:docname="InfectionBlack.svg"
   inkscape:version="0.92.4 (5da689c313, 2019-01-14)"
   inkscape:export-filename="D:\Win10\Desktop\Tesis\Code\PandemicWeb\Assets\Resources\Images\InfectionBlack.png"
   inkscape:export-xdpi="96"
   inkscape:export-ydpi="96"><metadata
   id="metadata47"><rdf:RDF><cc:Work
       rdf:about=""><dc:format>image/svg+xml</dc:format><dc:type
         rdf:resource="http://purl.org/dc/dcmitype/StillImage" /></cc:Work></rdf:RDF></metadata><defs
   id="defs45" /><sodipodi:namedview
   pagecolor="#ffffff"
   bordercolor="#666666"
   borderopacity="1"
   objecttolerance="10"
   gridtolerance="10"
   guidetolerance="10"
   inkscape:pageopacity="0"
   inkscape:pageshadow="2"
   inkscape:window-width="1920"
   inkscape:window-height="1017"
   id="namedview43"
   showgrid="false"
   inkscape:zoom="4.4811119"
   inkscape:cx="90.473359"
   inkscape:cy="129.85871"
   inkscape:window-x="-8"
   inkscape:window-y="-8"
   inkscape:window-maximized="1"
   inkscape:current-layer="Capa_1" />
<g
   id="g10"
   style="stroke:#808080;stroke-opacity:1">
	<path
   d="M188.535,83.205c-9.566,0.003-17.732,6.108-20.812,14.627h-8.619c-1.301-9.375-4.997-17.992-10.459-25.207l6.117-6.118   c2.908,1.369,6.095,2.115,9.404,2.115c5.91,0,11.466-2.301,15.644-6.48c4.18-4.179,6.482-9.735,6.482-15.645   c0-5.91-2.302-11.466-6.481-15.646c-4.179-4.179-9.735-6.48-15.645-6.48c-5.91,0-11.466,2.301-15.646,6.481   c-6.761,6.763-8.196,16.841-4.357,25.041l-6.126,6.125c-7.216-5.461-15.832-9.157-25.207-10.458v-8.622   c8.518-3.08,14.624-11.246,14.626-20.813C127.455,9.925,117.53,0,105.332,0c-12.2,0-22.126,9.926-22.126,22.126   c0,5.91,2.3,11.466,6.48,15.645c2.34,2.34,5.122,4.066,8.145,5.155v8.635c-9.374,1.302-17.991,4.997-25.206,10.459l-6.126-6.127   c3.839-8.199,2.403-18.278-4.357-25.042c-4.179-4.179-9.736-6.48-15.645-6.48c-5.91,0-11.466,2.301-15.645,6.481   c-8.626,8.627-8.625,22.664,0,31.289c4.179,4.18,9.735,6.481,15.645,6.481c3.309,0,6.496-0.746,9.404-2.115l6.119,6.119   c-5.461,7.216-9.157,15.832-10.458,25.205l-8.621,0.001c-3.08-8.519-11.246-14.625-20.817-14.625   c-5.91,0-11.466,2.302-15.645,6.482c-4.179,4.18-6.479,9.737-6.477,15.642c-0.002,12.198,9.922,22.125,22.122,22.128   c0.001,0,0.001,0,0.002,0c9.567,0,17.734-6.106,20.814-14.626l8.622-0.001c1.301,9.374,4.996,17.991,10.458,25.206l-6.119,6.12   c-2.908-1.369-6.095-2.115-9.404-2.115c-5.91,0-11.466,2.301-15.645,6.48c-4.179,4.179-6.48,9.735-6.48,15.646   c0,5.912,2.302,11.468,6.479,15.642c4.179,4.18,9.735,6.482,15.646,6.482c5.91,0,11.466-2.301,15.645-6.48   c6.763-6.762,8.199-16.841,4.358-25.042l6.127-6.128c7.215,5.462,15.832,9.157,25.206,10.458v8.622   c-8.519,3.079-14.625,11.246-14.625,20.813c0,5.911,2.301,11.467,6.479,15.646c4.179,4.179,9.735,6.48,15.643,6.48   c0.001,0,0.008,0,0.009,0c5.908,0,11.463-2.302,15.642-6.482c4.178-4.179,6.478-9.735,6.477-15.644   c0-9.565-6.105-17.731-14.625-20.811v-8.623c9.374-1.301,17.991-4.995,25.207-10.457l6.125,6.126   c-3.84,8.2-2.405,18.278,4.358,25.04c4.18,4.18,9.736,6.481,15.646,6.481c5.91,0,11.466-2.302,15.642-6.479   c4.181-4.178,6.484-9.734,6.484-15.646c0-5.911-2.302-11.467-6.481-15.646c-4.178-4.178-9.733-6.48-15.643-6.48   c-3.309,0-6.497,0.746-9.405,2.115l-6.118-6.119c5.462-7.215,9.158-15.833,10.459-25.207h8.618   c3.079,8.519,11.245,14.624,20.81,14.624h0.003c12.2,0,22.126-9.925,22.126-22.125C210.662,93.132,200.737,83.207,188.535,83.205z    M133.254,132.957c-0.051,0.048-0.106,0.091-0.156,0.141c-0.05,0.05-0.092,0.104-0.141,0.155   c-7.008,6.933-16.602,11.251-27.189,11.367c-0.146-0.008-0.29-0.022-0.438-0.022c-0.148,0-0.292,0.014-0.438,0.022   c-21.4-0.236-38.747-17.655-38.858-39.083c0.002-0.069,0.01-0.137,0.01-0.207c0-0.069-0.008-0.136-0.01-0.206   c0.112-21.506,17.583-38.978,39.09-39.089c0.069,0.002,0.136,0.01,0.206,0.01c0.07,0,0.137-0.009,0.207-0.011   c10.677,0.056,20.359,4.389,27.417,11.372c0.049,0.052,0.092,0.107,0.143,0.158c0.051,0.051,0.107,0.094,0.159,0.144   c6.924,6.999,11.239,16.577,11.365,27.146c-0.01,0.158-0.024,0.315-0.024,0.477c0,0.161,0.014,0.318,0.024,0.477   C144.495,116.379,140.18,125.959,133.254,132.957z M159.127,41.458c1.347-1.346,3.136-2.087,5.04-2.087   c1.903,0,3.692,0.741,5.038,2.087c1.346,1.347,2.088,3.136,2.088,5.039c0,1.902-0.741,3.691-2.088,5.039   c-1.346,1.346-3.134,2.086-5.038,2.086c-1.903,0-3.693-0.741-5.039-2.086C156.35,48.757,156.35,44.236,159.127,41.458z M105.332,15   c3.928,0,7.124,3.197,7.125,7.124c-0.001,3.929-3.198,7.125-7.127,7.127c-1.903,0-3.692-0.741-5.038-2.087   c-1.345-1.345-2.086-3.134-2.086-5.037C98.206,18.197,101.402,15,105.332,15z M41.457,51.535c-2.778-2.778-2.778-7.299,0-10.078   c1.346-1.346,3.134-2.086,5.038-2.086c1.903,0,3.693,0.741,5.038,2.085c2.778,2.779,2.778,7.301,0.002,10.078   c-1.347,1.346-3.136,2.087-5.04,2.087C44.592,53.622,42.803,52.881,41.457,51.535z M22.126,112.458   c-3.93-0.002-7.126-3.197-7.125-7.129c-0.001-1.901,0.74-3.689,2.085-5.035c1.346-1.346,3.134-2.087,5.044-2.087   c3.926,0,7.121,3.197,7.122,7.124C29.25,109.261,26.054,112.458,22.126,112.458z M51.535,169.205   c-1.347,1.346-3.136,2.087-5.04,2.087c-1.903,0-3.691-0.741-5.04-2.09c-1.345-1.344-2.085-3.132-2.085-5.035   c0-1.904,0.741-3.693,2.087-5.04c1.346-1.346,3.134-2.087,5.038-2.087c1.903,0,3.693,0.741,5.038,2.086   C54.312,161.907,54.313,166.428,51.535,169.205z M110.369,193.575c-1.345,1.346-3.132,2.087-5.034,2.087l0,7.5l-0.007-7.5   c-3.928,0-7.123-3.197-7.123-7.126c0-3.928,3.196-7.124,7.123-7.124c3.93,0.001,7.127,3.197,7.127,7.125   C112.456,190.44,111.715,192.229,110.369,193.575z M169.205,159.129c1.346,1.346,2.087,3.136,2.087,5.039   c0,1.902-0.741,3.69-2.088,5.037c-1.346,1.346-3.135,2.087-5.038,2.087c-1.903,0-3.692-0.742-5.039-2.088   c-2.778-2.778-2.777-7.298-0.002-10.074c1.348-1.347,3.139-2.088,5.043-2.088C166.07,157.042,167.859,157.784,169.205,159.129z    M188.534,112.456l-0.001,7.5v-7.5c-3.926,0-7.121-3.196-7.122-7.123c0-3.929,3.198-7.127,7.125-7.128   c3.929,0,7.126,3.197,7.126,7.126S192.465,112.456,188.534,112.456z"
   id="path2"
   style="stroke:#808080;stroke-opacity:1" />
	<circle
   cx="105.332"
   cy="93.019"
   r="8.044"
   id="circle4"
   style="stroke:#808080;stroke-opacity:1" />
	<circle
   cx="93.425"
   cy="113.644"
   r="8.043"
   id="circle6"
   style="stroke:#808080;stroke-opacity:1" />
	<circle
   cx="117.24"
   cy="113.644"
   r="8.043"
   id="circle8"
   style="stroke:#808080;stroke-opacity:1" />
</g>
<g
   id="g12">
</g>
<g
   id="g14">
</g>
<g
   id="g16">
</g>
<g
   id="g18">
</g>
<g
   id="g20">
</g>
<g
   id="g22">
</g>
<g
   id="g24">
</g>
<g
   id="g26">
</g>
<g
   id="g28">
</g>
<g
   id="g30">
</g>
<g
   id="g32">
</g>
<g
   id="g34">
</g>
<g
   id="g36">
</g>
<g
   id="g38">
</g>
<g
   id="g40">
</g>
<path
   style="opacity:1;fill:#666666;fill-opacity:1;fill-rule:nonzero;stroke:#000000;stroke-width:1.01381099;stroke-linecap:round;stroke-linejoin:round;stroke-miterlimit:4;stroke-dasharray:none;stroke-opacity:1;paint-order:markers fill stroke"
   d="m 102.58233,144.37494 c -17.731655,-1.12561 -32.650307,-14.57203 -35.858319,-32.31968 -0.665628,-3.68244 -0.66588,-9.79777 -5.56e-4,-13.447217 4.293791,-23.55241 28.155172,-37.877363 50.805405,-30.500541 3.70795,1.207623 8.32987,3.631399 11.38622,5.971037 7.67274,5.87349 12.78349,14.007203 14.87695,23.676524 0.44677,2.06357 0.50731,2.968937 0.50731,7.587407 0,5.86241 -0.26049,7.64759 -1.79095,12.27374 -2.75712,8.33397 -8.52034,15.77892 -15.93648,20.58677 -7.10983,4.60928 -15.32231,6.72216 -23.98958,6.17196 z m -6.271923,-23.12958 c 5.580803,-2.1823 7.006593,-9.35672 2.673844,-13.45446 -1.565378,-1.48046 -2.880123,-2.05176 -5.012502,-2.17808 -3.88747,-0.2303 -7.001751,1.85958 -8.243314,5.53178 -1.528054,4.51955 1.353154,9.50327 6.060088,10.48234 1.239637,0.25784 3.339912,0.0806 4.521884,-0.38158 z m 22.495753,0.35995 c 2.43056,-0.51571 4.58943,-2.12446 5.639,-4.20208 2.05347,-4.06482 0.55473,-8.76698 -3.49404,-10.96222 -1.33677,-0.7248 -1.52268,-0.76381 -3.6403,-0.76381 -1.95213,0 -2.39079,0.0746 -3.50282,0.59588 -1.62164,0.76013 -3.17489,2.31338 -3.93503,3.93503 -0.52204,1.11371 -0.59558,1.54774 -0.59347,3.50281 0.002,2.0044 0.0654,2.35169 0.62151,3.41119 1.22287,2.32998 2.92983,3.74073 5.29521,4.37637 1.51506,0.40713 2.11142,0.42478 3.60994,0.10683 z m -10.04311,-21.22223 c 1.61433,-0.741575 3.17134,-2.293875 3.93503,-3.92312 0.52126,-1.11203 0.59588,-1.550684 0.59588,-3.502813 0,-2.029296 -0.0598,-2.349665 -0.65939,-3.534123 -0.84179,-1.66287 -2.63152,-3.310501 -4.30664,-3.964721 -1.99526,-0.779244 -4.43496,-0.714137 -6.31227,0.168452 -4.072664,1.914705 -5.783064,6.191002 -4.194685,10.487441 0.736589,1.99242 2.444205,3.608238 4.831265,4.571534 1.54792,0.62467 4.39961,0.48343 6.11081,-0.30265 z"
   id="path4559"
   inkscape:connector-curvature="0" /><path
   style="opacity:1;fill:#666666;fill-opacity:1;fill-rule:nonzero;stroke:#000000;stroke-width:1.01381099;stroke-linecap:round;stroke-linejoin:round;stroke-miterlimit:4;stroke-dasharray:none;stroke-opacity:1;paint-order:markers fill stroke"
   d="m 44.661563,53.278893 c -2.923122,-0.826465 -4.872655,-3.2551 -5.07282,-6.319474 -0.153626,-2.351915 0.34202,-3.641806 2.051405,-5.338665 1.022379,-1.014886 1.655141,-1.443041 2.555967,-1.729481 4.209955,-1.33866 8.365474,1.128165 9.18563,5.452831 0.916406,4.832193 -3.969434,9.277984 -8.720182,7.934789 z"
   id="path4561"
   inkscape:connector-curvature="0" /><path
   style="opacity:1;fill:#666666;fill-opacity:1;fill-rule:nonzero;stroke:#000000;stroke-width:1.01381099;stroke-linecap:round;stroke-linejoin:round;stroke-miterlimit:4;stroke-dasharray:none;stroke-opacity:1;paint-order:markers fill stroke"
   d="m 104.19611,28.99917 c -1.57612,-0.243482 -2.93147,-0.991092 -4.04787,-2.232802 -3.018642,-3.357453 -2.090803,-8.591073 1.91662,-10.811003 1.06739,-0.591288 1.38924,-0.657516 3.19538,-0.657516 1.64809,0 2.1964,0.09259 3.05613,0.516059 4.08629,2.012756 5.23581,7.153532 2.40141,10.739326 -0.61001,0.771714 -1.27595,1.289059 -2.26793,1.761866 -1.56971,0.748171 -2.68147,0.926959 -4.25374,0.68407 z"
   id="path4563"
   inkscape:connector-curvature="0" /><path
   style="opacity:1;fill:#666666;fill-opacity:1;fill-rule:nonzero;stroke:#000000;stroke-width:1.01381099;stroke-linecap:round;stroke-linejoin:round;stroke-miterlimit:4;stroke-dasharray:none;stroke-opacity:1;paint-order:markers fill stroke"
   d="m 162.48473,53.276732 c -4.39476,-1.237828 -6.53308,-5.845948 -4.57236,-9.853509 2.0252,-4.139372 7.42269,-5.183976 10.91266,-2.111985 0.57013,0.501848 1.289,1.45181 1.64087,2.168358 0.53085,1.081027 0.62511,1.547103 0.61896,3.060499 -0.006,1.59519 -0.0876,1.934854 -0.76178,3.190178 -0.41498,0.772699 -1.13179,1.703713 -1.5929,2.06892 -1.82508,1.445491 -4.28937,2.028489 -6.24545,1.477539 z"
   id="path4565"
   inkscape:connector-curvature="0" /><path
   style="opacity:1;fill:#666666;fill-opacity:1;fill-rule:nonzero;stroke:#000000;stroke-width:1.01381099;stroke-linecap:round;stroke-linejoin:round;stroke-miterlimit:4;stroke-dasharray:none;stroke-opacity:1;paint-order:markers fill stroke"
   d="m 185.59744,111.62559 c -2.56869,-1.21716 -3.98923,-3.44734 -4.00291,-6.28441 -0.007,-1.39006 0.0977,-1.89123 0.61391,-2.94628 2.38759,-4.880061 9.04342,-5.436411 12.05827,-1.00793 2.02865,2.97984 1.54884,6.6918 -1.18239,9.14742 -2.06803,1.85933 -4.97244,2.28264 -7.48688,1.0912 z"
   id="path4567"
   inkscape:connector-curvature="0" /><path
   style="opacity:1;fill:#666666;fill-opacity:1;fill-rule:nonzero;stroke:#000000;stroke-width:1.01381099;stroke-linecap:round;stroke-linejoin:round;stroke-miterlimit:4;stroke-dasharray:none;stroke-opacity:1;paint-order:markers fill stroke"
   d="m 161.90521,170.77491 c -5.95828,-2.12955 -6.35196,-10.21559 -0.63209,-12.98263 1.58726,-0.76785 4.21487,-0.76785 5.80213,0 1.42382,0.68878 2.76409,2.02966 3.44995,3.45149 0.73849,1.53096 0.77986,4.2159 0.0881,5.71787 -1.51731,3.29438 -5.40125,4.99516 -8.70807,3.81327 z"
   id="path4569"
   inkscape:connector-curvature="0" /><path
   style="opacity:1;fill:#666666;fill-opacity:1;fill-rule:nonzero;stroke:#000000;stroke-width:1.01381099;stroke-linecap:round;stroke-linejoin:round;stroke-miterlimit:4;stroke-dasharray:none;stroke-opacity:1;paint-order:markers fill stroke"
   d="m 102.7886,195.05084 c -2.56509,-1.01225 -4.407117,-3.64553 -4.421868,-6.32132 -0.01547,-2.80563 1.528651,-5.31317 4.023408,-6.53374 3.55304,-1.73834 8.04509,0.11729 9.47128,3.9125 0.61225,1.62926 0.52929,3.91404 -0.19609,5.40039 -0.63451,1.30016 -2.0709,2.73319 -3.38349,3.37558 -1.42636,0.69807 -3.95233,0.77467 -5.49324,0.16659 z"
   id="path4571"
   inkscape:connector-curvature="0" /><path
   style="opacity:1;fill:#666666;fill-opacity:1;fill-rule:nonzero;stroke:#000000;stroke-width:1.01381099;stroke-linecap:round;stroke-linejoin:round;stroke-miterlimit:4;stroke-dasharray:none;stroke-opacity:1;paint-order:markers fill stroke"
   d="m 44.672596,170.97892 c -2.141393,-0.70464 -4.068097,-2.5102 -4.770424,-4.47046 -0.852576,-2.37962 -0.245076,-5.16224 1.564248,-7.16495 2.541723,-2.81338 7.218102,-2.85225 9.98735,-0.083 3.37037,3.37037 2.354878,9.1443 -1.977078,11.24136 -1.154313,0.5588 -3.767184,0.81825 -4.804096,0.47705 z"
   id="path4573"
   inkscape:connector-curvature="0" /><path
   style="opacity:1;fill:#666666;fill-opacity:1;fill-rule:nonzero;stroke:#000000;stroke-width:1.01381099;stroke-linecap:round;stroke-linejoin:round;stroke-miterlimit:4;stroke-dasharray:none;stroke-opacity:1;paint-order:markers fill stroke"
   d="m 19.875688,111.9655 c -2.983671,-1.11499 -4.655707,-3.49356 -4.655707,-6.62303 0,-2.82492 1.3284,-4.98348 3.838926,-6.238003 1.162036,-0.580676 1.610851,-0.679927 3.07464,-0.679927 1.463788,0 1.912604,0.09925 3.074639,0.679927 1.465312,0.732225 2.430172,1.681583 3.227613,3.175773 0.730959,1.36961 0.730959,4.75484 0,6.12446 -0.752333,1.40966 -1.673311,2.35559 -2.992529,3.07359 -0.969785,0.52783 -1.507913,0.65759 -2.97222,0.71671 -1.126869,0.0455 -2.086563,-0.0394 -2.595362,-0.2295 z"
   id="path4575"
   inkscape:connector-curvature="0" /><g
   inkscape:groupmode="layer"
   id="layer1"
   inkscape:label="Layer 1"><rect
     style="opacity:1;fill:#000000;fill-opacity:1;fill-rule:nonzero;stroke:none;stroke-width:5.32713985;stroke-linecap:round;stroke-linejoin:round;stroke-miterlimit:4;stroke-dasharray:none;stroke-opacity:1;paint-order:markers fill stroke"
     id="rect852"
     width="4.1027265"
     height="8.6788445"
     x="186.44214"
     y="112.89312"
     ry="2.8206244" /><rect
     style="opacity:1;fill:#000000;fill-opacity:1;fill-rule:nonzero;stroke:none;stroke-width:5.32713985;stroke-linecap:round;stroke-linejoin:round;stroke-miterlimit:4;stroke-dasharray:none;stroke-opacity:1;paint-order:markers fill stroke"
     id="rect852-1"
     width="4.1027265"
     height="8.6788445"
     x="103.23879"
     y="196.06578"
     ry="2.8206244" /></g></svg>