<?xml version="1.0" encoding="UTF-8" standalone="no"?>
<!-- Generator: Adobe Illustrator 18.0.0, SVG Export Plug-In . SVG Version: 6.00 Build 0)  -->

<svg
   xmlns:dc="http://purl.org/dc/elements/1.1/"
   xmlns:cc="http://creativecommons.org/ns#"
   xmlns:rdf="http://www.w3.org/1999/02/22-rdf-syntax-ns#"
   xmlns:svg="http://www.w3.org/2000/svg"
   xmlns="http://www.w3.org/2000/svg"
   xmlns:sodipodi="http://sodipodi.sourceforge.net/DTD/sodipodi-0.dtd"
   xmlns:inkscape="http://www.inkscape.org/namespaces/inkscape"
   version="1.1"
   id="Capa_1"
   x="0px"
   y="0px"
   viewBox="0 0 188.27 188.27"
   style="enable-background:new 0 0 188.27 188.27;"
   xml:space="preserve"
   sodipodi:docname="InfectionRed.svg"
   inkscape:version="0.92.4 (5da689c313, 2019-01-14)"
   inkscape:export-filename="D:\Win10\Desktop\Tesis\Code\PandemicWeb\Assets\Resources\Images\InfectionRed.png"
   inkscape:export-xdpi="96"
   inkscape:export-ydpi="96"><metadata
   id="metadata47"><rdf:RDF><cc:Work
       rdf:about=""><dc:format>image/svg+xml</dc:format><dc:type
         rdf:resource="http://purl.org/dc/dcmitype/StillImage" /></cc:Work></rdf:RDF></metadata><defs
   id="defs45" /><sodipodi:namedview
   pagecolor="#ffffff"
   bordercolor="#666666"
   borderopacity="1"
   objecttolerance="10"
   gridtolerance="10"
   guidetolerance="10"
   inkscape:pageopacity="0"
   inkscape:pageshadow="2"
   inkscape:window-width="1920"
   inkscape:window-height="1017"
   id="namedview43"
   showgrid="false"
   inkscape:zoom="3.5454867"
   inkscape:cx="124.28437"
   inkscape:cy="83.491519"
   inkscape:window-x="-8"
   inkscape:window-y="-8"
   inkscape:window-maximized="1"
   inkscape:current-layer="Capa_1" />
<g
   id="g10"
   style="stroke:#808080;stroke-opacity:1">
	<path
   d="M104.299,77.94c0-7.014-5.687-12.698-12.702-12.698c-7.013,0-12.7,5.685-12.7,12.698c0,7.017,5.688,12.702,12.7,12.702   C98.612,90.642,104.299,84.957,104.299,77.94z"
   id="path2"
   style="stroke:#808080;stroke-opacity:1" />
	<circle
   cx="72.767"
   cy="107.786"
   r="10.161"
   id="circle4"
   style="stroke:#808080;stroke-opacity:1" />
	<path
   d="M110.43,92.544c-8.421,0-15.241,6.821-15.241,15.24c0,8.42,6.82,15.242,15.241,15.242c8.415,0,15.239-6.822,15.239-15.242   C125.669,99.366,118.845,92.544,110.43,92.544z"
   id="path6"
   style="stroke:#808080;stroke-opacity:1" />
	<path
   d="M180.77,71.407c-4.142,0-7.5,3.358-7.5,7.5v7.729h-12.944c-1.436-12.757-6.49-24.429-14.109-33.975l9.177-9.178   l5.465,5.465c1.464,1.465,3.384,2.197,5.303,2.197c1.92,0,3.839-0.732,5.303-2.197c2.929-2.929,2.929-7.677,0-10.606   l-21.536-21.537c-2.929-2.93-7.678-2.929-10.606,0c-2.929,2.929-2.929,7.677,0,10.607l5.464,5.464l-9.178,9.179   c-9.546-7.617-21.217-12.67-33.973-14.106V15h7.729c4.142,0,7.5-3.358,7.5-7.5s-3.358-7.5-7.5-7.5H78.906   c-4.142,0-7.5,3.358-7.5,7.5s3.358,7.5,7.5,7.5h7.729v12.947c-12.757,1.437-24.428,6.49-33.975,14.108l-9.179-9.181l5.465-5.465   c2.929-2.929,2.929-7.678,0-10.607c-2.929-2.93-7.678-2.929-10.606,0L16.804,38.341c-2.929,2.929-2.929,7.678,0,10.606   c1.464,1.465,3.384,2.197,5.303,2.197c1.919,0,3.839-0.732,5.303-2.197l5.465-5.465l9.179,9.18   c-7.618,9.546-12.671,21.217-14.107,33.973H15.001v-7.726c0-4.142-3.357-7.5-7.5-7.5c-4.142,0-7.5,3.358-7.5,7.5L0,109.364   c0,4.142,3.358,7.5,7.5,7.5c4.142,0,7.5-3.358,7.5-7.5v-7.729h12.947c1.437,12.756,6.49,24.427,14.107,33.973l-9.179,9.18   l-5.465-5.465c-2.929-2.93-7.678-2.929-10.607,0c-2.929,2.929-2.929,7.677,0,10.606l21.536,21.537   c1.464,1.465,3.384,2.197,5.303,2.197s3.839-0.732,5.303-2.197c2.929-2.929,2.929-7.677,0-10.606l-5.465-5.465l9.18-9.181   c9.546,7.617,21.217,12.67,33.974,14.106v12.948h-7.729c-4.142,0-7.5,3.358-7.5,7.5c0,4.142,3.358,7.5,7.5,7.5h30.456   c4.142,0,7.5-3.358,7.5-7.5c0-4.142-3.358-7.5-7.5-7.5h-7.726v-12.948c12.756-1.436,24.427-6.488,33.973-14.105l9.178,9.179   l-5.464,5.464c-2.929,2.929-2.929,7.677,0,10.607c1.464,1.465,3.384,2.197,5.303,2.197c1.919,0,3.839-0.732,5.303-2.197   l21.536-21.535c2.929-2.929,2.929-7.677,0-10.606c-2.929-2.93-7.678-2.929-10.606,0l-5.465,5.465l-9.178-9.179   c7.619-9.546,12.672-21.217,14.109-33.974h12.943v7.727c0,4.142,3.357,7.5,7.5,7.5c4.142,0,7.5-3.358,7.5-7.5l0.001-30.455   C188.27,74.765,184.912,71.407,180.77,71.407z M145.744,94.728c-0.158,13.903-5.833,26.502-14.943,35.703   c-0.064,0.06-0.131,0.113-0.194,0.175c-0.062,0.062-0.115,0.129-0.175,0.193c-9.21,9.117-21.824,14.793-35.742,14.941   c-0.184-0.013-0.367-0.028-0.554-0.028c-0.187,0-0.37,0.015-0.553,0.028c-28.119-0.299-50.917-23.183-51.062-51.336   c0.003-0.091,0.014-0.18,0.014-0.271c0-0.091-0.01-0.18-0.014-0.27c0.147-28.256,23.11-51.21,51.371-51.343   c0.082,0.003,0.162,0.012,0.244,0.012c0.082,0,0.163-0.01,0.245-0.012c14.04,0.066,26.771,5.763,36.049,14.947   c0.061,0.065,0.114,0.133,0.177,0.196c0.063,0.063,0.132,0.117,0.196,0.178c9.109,9.201,14.783,21.799,14.94,35.702   c-0.015,0.196-0.03,0.393-0.03,0.592S145.729,94.532,145.744,94.728z"
   id="path8"
   style="stroke:#808080;stroke-opacity:1" />
</g>
<g
   id="g12">
</g>
<g
   id="g14">
</g>
<g
   id="g16">
</g>
<g
   id="g18">
</g>
<g
   id="g20">
</g>
<g
   id="g22">
</g>
<g
   id="g24">
</g>
<g
   id="g26">
</g>
<g
   id="g28">
</g>
<g
   id="g30">
</g>
<g
   id="g32">
</g>
<g
   id="g34">
</g>
<g
   id="g36">
</g>
<g
   id="g38">
</g>
<g
   id="g40">
</g>
<path
   style="opacity:1;fill:#ff5555;fill-opacity:1;fill-rule:nonzero;stroke:#000000;stroke-width:3.62419772;stroke-linecap:round;stroke-linejoin:round;stroke-miterlimit:4;stroke-dasharray:none;stroke-opacity:1;paint-order:markers fill stroke"
   d="m 82.168688,143.93801 c -18.500572,-4.84166 -33.187735,-19.65206 -37.885856,-38.20374 -1.543139,-6.093462 -1.543139,-17.105073 0,-23.198536 4.802076,-18.962172 19.675451,-33.917778 38.036069,-38.246357 17.122238,-4.036628 34.970889,1.156574 47.790339,13.904969 9.83006,9.775565 15.08203,22.291087 15.08203,35.940656 0,8.487288 -1.45956,14.402428 -5.70852,23.134878 -6.17155,12.68374 -19.26214,23.04684 -33.74848,26.71683 -5.918344,1.49937 -17.743627,1.47492 -23.565582,-0.0487 z m 35.971262,-22.71626 c 7.71529,-3.93604 10.26303,-16.12963 4.77308,-22.844101 -5.1741,-6.328167 -14.13697,-7.84225 -20.92821,-3.535371 -11.049195,7.007192 -8.51917,24.159052 4.1165,27.907102 3.57557,1.0606 8.08755,0.48806 12.03863,-1.52763 z m -39.99181,-4.45888 c 6.8764,-4.06199 6.419766,-14.52433 -0.796799,-18.256159 -8.830609,-4.566485 -18.474349,5.188599 -13.891148,14.051529 2.557306,4.94529 9.883699,7.04257 14.687947,4.20463 z M 98.732223,88.812263 c 6.692847,-4.996931 7.753067,-13.956045 2.331807,-19.704259 -5.151301,-5.461969 -13.220901,-5.537376 -18.584611,-0.173665 -8.569979,8.569978 -1.816995,22.814873 10.318939,21.767 2.116817,-0.182775 4.787057,-1.03286 5.933865,-1.889076 z"
   id="path854"
   inkscape:connector-curvature="0" /></svg>