<?xml version="1.0" encoding="UTF-8" standalone="no"?>
<!-- Generator: Adobe Illustrator 18.0.0, SVG Export Plug-In . SVG Version: 6.00 Build 0)  -->

<svg
   xmlns:dc="http://purl.org/dc/elements/1.1/"
   xmlns:cc="http://creativecommons.org/ns#"
   xmlns:rdf="http://www.w3.org/1999/02/22-rdf-syntax-ns#"
   xmlns:svg="http://www.w3.org/2000/svg"
   xmlns="http://www.w3.org/2000/svg"
   xmlns:sodipodi="http://sodipodi.sourceforge.net/DTD/sodipodi-0.dtd"
   xmlns:inkscape="http://www.inkscape.org/namespaces/inkscape"
   version="1.1"
   id="Capa_1"
   x="0px"
   y="0px"
   viewBox="0 0 182.293 182.293"
   style="enable-background:new 0 0 182.293 182.293;"
   xml:space="preserve"
   sodipodi:docname="InfectionBlue.svg"
   inkscape:version="0.92.4 (5da689c313, 2019-01-14)"
   inkscape:export-filename="D:\Win10\Desktop\Tesis\Code\PandemicWeb\Assets\Resources\Images\InfectionBlue.png"
   inkscape:export-xdpi="96"
   inkscape:export-ydpi="96"><metadata
   id="metadata49"><rdf:RDF><cc:Work
       rdf:about=""><dc:format>image/svg+xml</dc:format><dc:type
         rdf:resource="http://purl.org/dc/dcmitype/StillImage" /></cc:Work></rdf:RDF></metadata><defs
   id="defs47" /><sodipodi:namedview
   pagecolor="#ffffff"
   bordercolor="#666666"
   borderopacity="1"
   objecttolerance="10"
   gridtolerance="10"
   guidetolerance="10"
   inkscape:pageopacity="0"
   inkscape:pageshadow="2"
   inkscape:window-width="1920"
   inkscape:window-height="1017"
   id="namedview45"
   showgrid="false"
   inkscape:zoom="1.2946191"
   inkscape:cx="-34.373045"
   inkscape:cy="91.146499"
   inkscape:window-x="-8"
   inkscape:window-y="-8"
   inkscape:window-maximized="1"
   inkscape:current-layer="Capa_1" />
<g
   id="g12"
   style="stroke:#808080;stroke-opacity:1">
	<path
   d="M174.793,83.647h-16.439c-1.199-7.543-4.179-14.497-8.488-20.427l11.645-11.645c2.929-2.929,2.929-7.678,0-10.606   c-2.929-2.929-7.678-2.929-10.607,0l-11.645,11.645c-5.93-4.31-12.884-7.289-20.427-8.488V27.685c0-4.142-3.358-7.5-7.5-7.5   c-4.142,0-7.5,3.358-7.5,7.5V43.53H78.463V27.685c0-4.142-3.358-7.5-7.5-7.5c-4.142,0-7.5,3.358-7.5,7.5v16.441   c-7.543,1.199-14.497,4.179-20.428,8.488L31.392,40.969c-2.929-2.928-7.677-2.929-10.607,0c-2.929,2.929-2.929,7.678,0,10.607   l11.644,11.645c-4.31,5.93-7.29,12.884-8.489,20.427H7.5c-4.142,0-7.5,3.358-7.5,7.5s3.358,7.5,7.5,7.5h16.44   c1.199,7.543,4.179,14.497,8.489,20.427l-11.643,11.643c-2.929,2.929-2.929,7.678,0,10.606c1.464,1.464,3.384,2.197,5.303,2.197   s3.839-0.732,5.303-2.197l11.644-11.643c5.93,4.31,12.885,7.29,20.428,8.489v16.439c0,4.142,3.358,7.5,7.5,7.5   c4.142,0,7.5-3.358,7.5-7.5v-15.844h25.369v15.844c0,4.142,3.358,7.5,7.5,7.5c4.142,0,7.5-3.358,7.5-7.5v-16.439   c7.543-1.199,14.497-4.179,20.427-8.488l11.645,11.644c1.465,1.464,3.384,2.196,5.303,2.196c1.919,0,3.839-0.732,5.304-2.197   c2.929-2.929,2.928-7.678-0.001-10.607l-11.645-11.643c4.309-5.93,7.289-12.883,8.488-20.426h16.439c4.142,0,7.5-3.358,7.5-7.5   S178.935,83.647,174.793,83.647z M111.332,123.765H70.963c-17.986,0-32.619-14.632-32.619-32.617   c0-17.985,14.633-32.617,32.619-32.617h40.369c17.985,0,32.617,14.632,32.617,32.617   C143.949,109.133,129.317,123.765,111.332,123.765z"
   id="path2"
   style="stroke:#808080;stroke-opacity:1" />
	<circle
   cx="116.99"
   cy="91.147"
   r="8.848"
   id="circle4"
   style="stroke:#808080;stroke-opacity:1" />
	<circle
   cx="94.303"
   cy="104.245"
   r="8.848"
   id="circle6"
   style="stroke:#808080;stroke-opacity:1" />
	<circle
   cx="65.303"
   cy="91.146"
   r="8.848"
   id="circle8"
   style="stroke:#808080;stroke-opacity:1" />
	<circle
   cx="87.99"
   cy="78.048"
   r="8.848"
   id="circle10"
   style="stroke:#808080;stroke-opacity:1" />
</g>
<g
   id="g14">
</g>
<g
   id="g16">
</g>
<g
   id="g18">
</g>
<g
   id="g20">
</g>
<g
   id="g22">
</g>
<g
   id="g24">
</g>
<g
   id="g26">
</g>
<g
   id="g28">
</g>
<g
   id="g30">
</g>
<g
   id="g32">
</g>
<g
   id="g34">
</g>
<g
   id="g36">
</g>
<g
   id="g38">
</g>
<g
   id="g40">
</g>
<g
   id="g42">
</g>
<path
   style="opacity:1;fill:#2a7fff;fill-opacity:1;fill-rule:nonzero;stroke:#000000;stroke-width:3.50914049;stroke-linecap:round;stroke-linejoin:round;stroke-miterlimit:4;stroke-dasharray:none;stroke-opacity:1;paint-order:markers fill stroke"
   d="M 63.543439,122.39771 C 46.97877,117.93664 36.354279,102.00136 39.296894,86.031219 41.723993,72.858878 50.714214,63.28458 63.874616,59.856731 c 5.537261,-1.442273 47.196054,-1.661876 53.689524,-0.283022 16.82796,3.573329 28.44554,20.332811 25.43197,36.688071 -2.45282,13.31189 -12.43629,23.69794 -25.43197,26.45751 -6.24423,1.32593 -48.844877,1.07233 -54.020701,-0.32158 z m 37.016611,-11.72842 c 4.44306,-4.44306 3.29446,-11.902032 -2.236971,-14.526868 -4.821539,-2.28797 -9.717198,-0.522892 -12.276442,4.426138 -1.39617,2.6999 -1.364447,4.77988 0.116581,7.64387 2.892455,5.59339 10.040473,6.81322 14.396832,2.45686 z M 69.509986,99.261405 c 3.243895,-1.677484 4.643098,-4.12292 4.643098,-8.114905 0,-3.991985 -1.399203,-6.437422 -4.643098,-8.114905 -6.241237,-3.227469 -13.122745,1.027951 -13.122745,8.114905 0,6.993339 6.963952,11.29974 13.122745,8.114905 z m 51.348494,0.05644 c 7.17547,-2.998102 6.47166,-14.481155 -1.02523,-16.727278 -3.86211,-1.157115 -6.65622,-0.462157 -9.47503,2.35665 -1.80571,1.805712 -2.21831,2.885308 -2.21831,5.80443 0,4.396204 0.91359,6.211912 4.10455,8.157577 2.93029,1.786726 5.07254,1.888346 8.61402,0.408619 z M 91.895743,86.296184 c 2.514907,-1.272557 5.430917,-5.679423 5.427293,-8.202082 -0.0042,-2.947177 -2.697319,-6.869981 -5.699103,-8.301432 -7.52371,-3.587807 -15.346441,4.63038 -11.707355,12.299187 2.089971,4.404286 7.695767,6.371752 11.979165,4.204327 z"
   id="path856"
   inkscape:connector-curvature="0" /></svg>