<svg id="Capa_1" enable-background="new 0 0 512 512" height="512" viewBox="0 0 512 512" width="512" xmlns="http://www.w3.org/2000/svg"><g><g><path d="m461.385 238.632v115.719 119.94l-181.298 30.201h-87.92l-181.308-30.2v-300.293l181.308-85.518c45.709 0 57.719 14.905 57.719 37.337 0 22.422-15.045 72.201 23.548 78.382s187.951-16.643 187.951 34.432z" fill="#b9c1cb"/><g><path d="m192.164 388.774h-151.107c-16.678 0-30.198 13.52-30.198 30.198v55.323c0 16.678 13.52 30.198 30.198 30.198h151.106c16.678 0 30.198-13.52 30.198-30.198v-55.323c.001-16.678-13.519-30.198-30.197-30.198z" fill="#e49542"/></g><g><path d="m68.498 504.5h-27.437c-16.673 0-30.201-13.528-30.201-30.201v-55.327c0-16.673 13.528-30.191 30.201-30.191h27.437c-16.683 0-30.201 13.518-30.201 30.191v55.327c0 16.673 13.517 30.201 30.201 30.201z" fill="#e27d47"/></g><g><path d="m431.191 388.774h-151.106c-16.678 0-30.198 13.52-30.198 30.198v55.323c0 16.678 13.52 30.198 30.198 30.198h151.106c16.678 0 30.198-13.52 30.198-30.198v-55.323c0-16.678-13.52-30.198-30.198-30.198z" fill="#e49542"/></g><g><path d="m307.525 504.5h-27.437c-16.673 0-30.201-13.528-30.201-30.201v-55.327c0-16.673 13.528-30.191 30.201-30.191h27.437c-16.683 0-30.201 13.518-30.201 30.191v55.327c0 16.673 13.518 30.201 30.201 30.201z" fill="#e27d47"/></g><g><path d="m461.385 238.632v115.719h-61.789c-16.673 0-30.201-13.528-30.201-30.201v-55.327c0-16.673 13.528-30.191 30.201-30.191z" fill="#e49542"/></g><g><path d="m427.036 354.354h-27.437c-16.673 0-30.201-13.528-30.201-30.201v-55.327c0-16.674 13.528-30.191 30.201-30.191h27.437c-16.683 0-30.201 13.518-30.201 30.191v55.327c0 16.674 13.518 30.201 30.201 30.201z" fill="#e27d47"/></g><g><path d="m102.84 268.824v55.327c0 16.673-13.518 30.191-30.191 30.191h-61.79v-115.72h61.789c16.674 0 30.192 13.528 30.192 30.202z" fill="#e49542"/></g><g><path d="m192.164 88.481h-151.107c-16.678 0-30.198 13.52-30.198 30.198v55.323c0 16.678 13.52 30.198 30.198 30.198h151.106c16.678 0 30.198-13.52 30.198-30.198v-55.323c.001-16.678-13.519-30.198-30.197-30.198z" fill="#e49542"/></g><g><path d="m68.498 204.207h-27.437c-16.673 0-30.201-13.528-30.201-30.201v-55.327c0-16.673 13.528-30.191 30.201-30.191h27.437c-16.683 0-30.201 13.518-30.201 30.191v55.327c0 16.673 13.517 30.201 30.201 30.201z" fill="#e27d47"/></g><g><path d="m311.678 238.627h-151.107c-16.678 0-30.198 13.52-30.198 30.198v55.323c0 16.678 13.52 30.198 30.198 30.198h151.106c16.678 0 30.198-13.52 30.198-30.198v-55.323c.001-16.678-13.52-30.198-30.197-30.198z" fill="#e49542"/></g><g><path d="m188.012 354.353h-27.437c-16.673 0-30.201-13.528-30.201-30.201v-55.327c0-16.673 13.528-30.191 30.201-30.191h27.437c-16.683 0-30.201 13.518-30.201 30.191v55.327c0 16.674 13.517 30.201 30.201 30.201z" fill="#e27d47"/></g><g><path d="m481.997 64.921-140.617-55.316c-15.52-6.105-33.051 1.527-39.157 17.047l-20.253 51.483c-6.105 15.52 1.527 33.051 17.047 39.157l140.617 55.317c15.52 6.105 33.051-1.527 39.157-17.047l20.253-51.483c6.106-15.521-1.527-33.052-17.047-39.158z" fill="#e49542"/></g><g><path d="m366.445 19.466c-15.518-6.111-33.045 1.528-39.156 17.045l-20.251 51.488c-6.111 15.518 1.528 33.045 17.045 39.156l-25.065-9.859c-15.518-6.111-23.146-23.638-17.045-39.156l20.251-51.488c6.111-15.518 23.638-23.156 39.156-17.045z" fill="#e27d47"/></g></g><g><path d="m499.92 68.921c-2.647-3.187-7.376-3.624-10.561-.978-3.186 2.646-3.624 7.375-.978 10.561 5.303 6.385 6.713 15.137 3.68 22.843l-20.249 51.477c-4.585 11.645-17.791 17.395-29.436 12.818l-140.62-55.32c-5.64-2.217-10.078-6.5-12.497-12.059-2.419-5.561-2.528-11.731-.306-17.375l20.251-51.481c2.216-5.64 6.499-10.078 12.06-12.499s11.732-2.532 17.373-.315l126.648 49.829c3.856 1.517 8.209-.379 9.725-4.233s-.379-8.208-4.233-9.725l-126.651-49.83c-9.37-3.683-19.616-3.498-28.849.521-9.236 4.02-16.351 11.395-20.033 20.764l-20.249 51.477c-3.689 9.37-3.508 19.617.51 28.852 4.019 9.236 11.393 16.352 20.762 20.034l140.62 55.32c4.513 1.774 9.165 2.614 13.745 2.613 15.048 0 29.3-9.072 35.137-23.898l20.249-51.478c5.038-12.794 2.701-27.324-6.098-37.918z"/><path d="m122.876 268.84v55.319c0 20.788 16.912 37.7 37.699 37.7h12.44c4.142 0 7.5-3.358 7.5-7.5s-3.358-7.5-7.5-7.5h-12.44c-12.516 0-22.699-10.183-22.699-22.7v-55.319c0-12.517 10.183-22.7 22.699-22.7h151.098c12.517 0 22.7 10.183 22.7 22.7v55.319c0 12.517-10.183 22.7-22.7 22.7h-108.658c-4.142 0-7.5 3.358-7.5 7.5s3.358 7.5 7.5 7.5h108.659c20.788 0 37.7-16.912 37.7-37.7v-55.319c0-20.788-16.912-37.7-37.7-37.7h-151.099c-20.787.001-37.699 16.913-37.699 37.7z"/><path d="m324.137 197.39c-21.3.531-39.695.989-49.518-.584-10.62-1.701-16.431-7.284-18.843-18.103-2.388-10.712-.945-24.177.328-36.056.66-6.155 1.283-11.97 1.283-16.819 0-30.588-20.725-44.834-65.222-44.834h-151.105c-20.786 0-37.697 16.911-37.697 37.697v355.611c0 20.787 16.911 37.698 37.697 37.698h151.104.002.001 87.917.003 151.1c20.787 0 37.698-16.911 37.698-37.697v-235.662c0-8.447-3.118-15.771-9.266-21.769-22.851-22.289-85.302-20.732-135.482-19.482zm129.75 149.464h-54.287c-12.519 0-22.704-10.181-22.704-22.695v-55.323c0-12.514 10.185-22.695 22.704-22.695h54.286v100.713zm-211.5-221.026c0 4.048-.582 9.475-1.197 15.22-1.328 12.385-2.979 27.797-.054 40.918 3.73 16.734 14.489 26.987 31.11 29.65 11.187 1.792 30.223 1.318 52.264.768 44.868-1.117 106.31-2.649 124.636 15.225 1.152 1.124 2.075 2.295 2.798 3.531h-52.344c-20.79 0-37.704 16.91-37.704 37.695v55.323c0 20.785 16.914 37.695 37.704 37.695h54.286v27.051c-6.319-4.781-14.182-7.622-22.698-7.622h-151.103c-20.787 0-37.698 16.911-37.698 37.697v55.322c0 8.516 2.842 16.379 7.622 22.698h-27.77c4.781-6.319 7.622-14.182 7.622-22.698v-55.321c0-20.786-16.911-37.697-37.698-37.697h-151.103c-8.516 0-16.379 2.842-22.697 7.622v-27.051h54.286c20.79 0 37.704-16.91 37.704-37.695v-55.323c0-20.785-16.914-37.695-37.704-37.695h-54.286v-27.052c6.319 4.781 14.181 7.622 22.697 7.622h151.104c20.787 0 37.698-16.911 37.698-37.697v-55.322c0-6.698-1.764-12.989-4.84-18.446 15.577 5.574 17.365 15.799 17.365 25.582zm-224.024 120.313h54.286c12.519 0 22.704 10.181 22.704 22.695v55.323c0 12.514-10.185 22.695-22.704 22.695h-54.286zm0-127.45c0-12.515 10.182-22.698 22.697-22.698h151.104c12.515 0 22.698 10.182 22.698 22.698v55.322c0 12.515-10.182 22.698-22.698 22.698h-151.104c-12.515 0-22.697-10.182-22.697-22.698zm0 355.612v-55.323c0-12.515 10.182-22.698 22.697-22.698h151.104c12.515 0 22.698 10.182 22.698 22.698v55.322c0 12.515-10.182 22.698-22.698 22.698h-151.104c-12.515 0-22.697-10.182-22.697-22.697zm412.826 22.697h-151.1-.003c-12.515 0-22.698-10.182-22.698-22.698v-55.322c0-12.515 10.182-22.698 22.698-22.698h151.104c12.515 0 22.698 10.182 22.698 22.698v55.322c-.001 12.516-10.184 22.698-22.699 22.698z"/></g></g></svg>